<svg width="35" height="48" viewBox="0 0 35 48" fill="none" xmlns="http://www.w3.org/2000/svg">
<path opacity="0.4" fill-rule="evenodd" clip-rule="evenodd" d="M22 43C29.1797 43 35 37.1797 35 30C35 22.8203 29.1797 17 22 17C14.8203 17 9 22.8203 9 30C9 37.1797 14.8203 43 22 43ZM22 35.7778C25.191 35.7778 27.7778 33.191 27.7778 30C27.7778 26.809 25.191 24.2222 22 24.2222C18.809 24.2222 16.2222 26.809 16.2222 30C16.2222 33.191 18.809 35.7778 22 35.7778Z" fill="#666666"/>
<path d="M14.64 28.56C14.64 31.632 14.032 34.256 12.816 36.432C11.6 38.608 9.904 40.272 7.728 41.424C5.584 42.608 3.088 43.248 0.24 43.344V36.576C2.416 36.448 4.192 35.776 5.568 34.56C6.944 33.344 7.632 31.296 7.632 28.416V0.671997H14.64V28.56Z" fill="#A0A0A0"/>
</svg>
