<svg width="64" height="64" viewBox="0 0 64 64" fill="none" xmlns="http://www.w3.org/2000/svg">
    <path opacity="0.7" fill-rule="evenodd" clip-rule="evenodd" d="M41 53C47.6274 53 53 47.6274 53 41C53 34.3726 47.6274 29 41 29C34.3726 29 29 34.3726 29 41C29 47.6274 34.3726 53 41 53ZM41 47C44.3137 47 47 44.3137 47 41C47 37.6863 44.3137 35 41 35C37.6863 35 35 37.6863 35 41C35 44.3137 37.6863 47 41 47Z" fill="#A3A3A3"/>
    <path d="M15.4339 53.4582C14.571 53.4582 13.369 53.4068 11.8281 53.3041V47.356C12.6499 47.6026 14.1293 47.7259 16.2661 47.7259C18.4234 47.7259 20.2314 47.428 21.6902 46.8321C23.1695 46.2363 24.4022 45.2911 25.3885 43.9967C27.3814 41.3874 28.3779 37.2063 28.3779 31.4534V15.7049H12.5678V10.25H34.8594L34.5417 31.4534C34.5417 42.5894 31.0386 49.4723 24.0325 52.1022C21.6285 53.0062 18.7624 53.4582 15.4339 53.4582Z" fill="#A2A2A2"/>
</svg>