<svg width="100" height="100" viewBox="0 0 100 100" fill="none" xmlns="http://www.w3.org/2000/svg">
<path d="M50 29.3501C23.8062 29.3501 2.30833 49.4084 0 75.0001H100C97.6917 49.4084 76.1937 29.3501 50 29.3501ZM69.1229 56.4147C69.1229 54.1147 70.9875 52.2501 73.2875 52.2501C75.5875 52.2501 77.4521 54.1147 77.4521 56.4147C77.4521 58.7147 75.5875 60.5793 73.2875 60.5793C70.9875 60.5793 69.1229 58.7147 69.1229 56.4147ZM26.7125 60.5793C24.4125 60.5793 22.5479 58.7147 22.5479 56.4147C22.5479 54.1147 24.4125 52.2501 26.7125 52.2501C29.0125 52.2501 30.8771 54.1147 30.8771 56.4147C30.8771 58.7147 29.0125 60.5793 26.7125 60.5793Z" fill="#1D1037"/>
<path d="M70.9125 40.2355C70.6209 40.2355 70.3271 40.1625 70.0584 40.0063C69.2396 39.5334 68.9605 38.4875 69.4313 37.6688L80.2584 18.9021C80.7313 18.0813 81.7771 17.8 82.5959 18.275C83.4146 18.748 83.6938 19.7938 83.223 20.6125L72.3959 39.3792C72.0792 39.9292 71.5042 40.2355 70.9125 40.2355Z" fill="#1D1037"/>
<path d="M29.0876 40.2355C28.4959 40.2355 27.9209 39.9271 27.6042 39.3792L16.7792 20.6125C16.3063 19.7938 16.5876 18.748 17.4042 18.275C18.2209 17.8 19.2688 18.0813 19.7417 18.9021L30.5688 37.6688C31.0417 38.4896 30.7605 39.5355 29.9417 40.0063C29.673 40.1625 29.3792 40.2355 29.0876 40.2355Z" fill="#1D1037"/>
</svg>
