<svg width="100" height="100" viewBox="0 0 100 100" fill="none" xmlns="http://www.w3.org/2000/svg">
<path fill-rule="evenodd" clip-rule="evenodd" d="M69.1094 7.9688C67.55 7.91636 65.9178 8.18823 64.2812 8.7188C61.0082 9.77993 57.5784 11.8478 54.0586 14.711C52.6792 15.8331 51.2872 17.1157 49.8906 18.4766C48.5248 17.1503 47.1615 15.902 45.8125 14.8047C42.2955 11.9439 38.875 9.87518 35.6094 8.81645C32.3438 7.75772 29.0944 7.72492 26.4258 9.26567C23.7571 10.8064 22.1612 13.6348 21.4453 16.9922C20.7294 20.3497 20.8083 24.348 21.5273 28.8243C21.7771 30.3791 22.1333 32.0102 22.5391 33.6719C21.0142 34.1341 19.5334 34.62 18.1602 35.1563C14.016 36.7749 10.5869 38.7114 8.08984 41.0157C5.59279 43.32 3.98047 46.1167 3.98047 49.1875C3.98047 52.2584 5.59279 55.0512 8.08984 57.3555C10.5869 59.6598 14.016 61.6002 18.1602 63.2188C19.6285 63.7923 21.2182 64.3087 22.8594 64.7969C22.2691 67.0026 21.7908 69.143 21.4648 71.1719C20.7452 75.6517 20.6692 79.6506 21.3867 83.0157C22.1043 86.3808 23.701 89.2251 26.3828 90.7735C29.0647 92.3219 32.3285 92.2838 35.6016 91.2227C38.8746 90.1616 42.3005 88.0976 45.8203 85.2344C47.187 84.1227 48.5695 82.8545 49.9531 81.5079C51.344 82.8626 52.732 84.1367 54.1055 85.254C57.6225 88.1148 61.0469 90.1796 64.3125 91.2383C67.5781 92.2971 70.8274 92.3299 73.4961 90.7891C76.1648 89.2484 77.7567 86.42 78.4727 83.0625C79.1886 79.7051 79.1097 75.7107 78.3906 71.2344C78.0638 69.2 77.5852 67.0525 76.9922 64.8399C78.6875 64.3398 80.3275 63.8095 81.8398 63.2188C85.984 61.6002 89.4131 59.6598 91.9102 57.3555C94.4072 55.0512 96.0195 52.2584 96.0195 49.1875C96.0195 46.1167 94.4072 43.32 91.9102 41.0157C89.4131 38.7114 85.984 36.7749 81.8398 35.1563C80.4469 34.6123 78.9434 34.12 77.3945 33.6524C77.8036 31.9805 78.1667 30.3377 78.418 28.7735C79.1376 24.2937 79.2137 20.2909 78.4961 16.9258C77.7786 13.5607 76.1779 10.7203 73.4961 9.17192C72.1552 8.39774 70.6687 8.02123 69.1094 7.9688ZM68.9258 12.0391C69.9043 12.0659 70.7391 12.2987 71.4531 12.711C72.8812 13.5355 73.9368 15.1402 74.5 17.7813C75.0632 20.4224 75.0437 23.9907 74.3789 28.129C74.1513 29.5458 73.8208 31.0474 73.4453 32.586C69.3543 31.6014 64.8715 30.8708 60.0938 30.4415C57.6953 27.1187 55.2308 24.0916 52.7461 21.4063C54.0604 20.1234 55.3661 18.9235 56.6406 17.8868C59.8921 15.2419 62.9703 13.4422 65.5391 12.6094C66.8235 12.193 67.9473 12.0124 68.9258 12.0391ZM30.9727 12.0508C31.9568 12.0234 33.083 12.2035 34.3711 12.6211C36.9473 13.4564 40.0309 15.2552 43.2852 17.9024C44.5341 18.9183 45.8106 20.0953 47.0977 21.3477C44.5946 24.055 42.1097 27.1083 39.6953 30.461C34.9378 30.8982 30.4732 31.6327 26.4023 32.6211C26.0297 31.0911 25.6991 29.5972 25.4727 28.1875C24.8073 24.0457 24.7907 20.4769 25.3555 17.8282C25.9203 15.1795 26.9845 13.5627 28.4258 12.7305C29.1464 12.3144 29.9885 12.0783 30.9727 12.0508ZM49.9531 24.2852C51.5823 26.0582 53.2119 27.9984 54.8281 30.086C53.2401 30.0198 51.6326 29.9805 50 29.9805C48.3349 29.9805 46.6968 30.021 45.0781 30.0899C46.6947 28.0007 48.3235 26.0595 49.9531 24.2852ZM50 34.0196C52.7198 34.0196 55.3707 34.1313 57.9492 34.3204C59.7235 36.8687 61.4573 39.5722 63.1094 42.4336C64.561 44.9479 65.8747 47.4584 67.0703 49.9375C65.862 52.4496 64.5264 54.994 63.0547 57.543C61.7592 59.7868 60.4064 61.9179 59.0312 63.9727C56.1186 64.2161 53.1006 64.3516 50 64.3516C46.8247 64.3516 43.7389 64.2081 40.7617 63.9532C39.4095 61.928 38.0795 59.8291 36.8047 57.6211C35.3364 55.0779 34.0072 52.5382 32.8008 50.0313C34.0122 47.5102 35.3474 44.9564 36.8242 42.3985C38.4676 39.552 40.1964 36.8642 41.9609 34.3282C44.5672 34.1349 47.2489 34.0196 50 34.0196ZM63.0977 34.8204C66.3946 35.2317 69.4902 35.8029 72.3711 36.4883C71.5163 39.2906 70.4633 42.2177 69.1875 45.2383C68.3591 43.6415 67.5012 42.0392 66.5742 40.4336C65.4508 38.4879 64.2808 36.6329 63.0977 34.8204ZM36.6875 34.8516C35.5293 36.6302 34.3897 38.4492 33.2891 40.3555C32.3502 41.9817 31.4744 43.6055 30.6367 45.2227C29.3719 42.2202 28.3253 39.3098 27.4766 36.5235C30.336 35.8368 33.4135 35.2677 36.6875 34.8516ZM76.3281 37.5508C77.7459 37.9798 79.1151 38.4275 80.3711 38.918C84.1914 40.4101 87.2133 42.177 89.1719 43.9844C91.1304 45.7918 91.9805 47.5154 91.9805 49.1875C91.9805 50.8597 91.1304 52.5833 89.1719 54.3907C87.2133 56.1981 84.1914 57.965 80.3711 59.4571C78.9754 60.0022 77.4419 60.4965 75.8477 60.9649C74.7104 57.4473 73.2588 53.7776 71.5312 50.0313C73.5176 45.7302 75.1222 41.5366 76.3281 37.5508ZM23.6055 37.5704C24.7976 41.5164 26.3816 45.6683 28.3398 49.9258C26.6009 53.694 25.1422 57.3846 24 60.9219C22.4619 60.4659 20.9804 59.9849 19.6289 59.4571C15.8086 57.965 12.7867 56.1981 10.8281 54.3907C8.86955 52.5833 8.01953 50.8597 8.01953 49.1875C8.01953 47.5154 8.86955 45.7918 10.8281 43.9844C12.7867 42.177 15.8086 40.4101 19.6289 38.918C20.8655 38.435 22.2118 37.9937 23.6055 37.5704ZM50 40C44.5008 40 40 44.5009 40 50C40 55.4992 44.5008 60 50 60C55.4992 60 60 55.4992 60 50C60 44.5009 55.4992 40 50 40ZM30.6836 54.7305C31.525 56.3558 32.4001 57.9866 33.3438 59.6211C34.0821 60.9 34.8361 62.1448 35.6016 63.3672C32.9156 62.9948 30.3625 62.5233 27.9648 61.9649C28.7273 59.6297 29.6395 57.2056 30.6836 54.7305ZM69.2383 54.7305C70.2866 57.2115 71.1992 59.6394 71.9648 61.9805C69.5596 62.5382 66.9986 63.0081 64.3047 63.379C65.0801 62.1416 65.846 60.8812 66.5938 59.586C67.5305 57.9635 68.4022 56.3439 69.2383 54.7305ZM26.8125 65.8477C30.4321 66.7052 34.3554 67.3639 38.5156 67.793C41.2928 71.8098 44.1859 75.419 47.0977 78.5743C45.7956 79.8438 44.5051 81.0352 43.2422 82.0625C39.9908 84.7074 36.9087 86.5032 34.3398 87.336C31.771 88.1688 29.8539 88.0589 28.4258 87.2344C26.9977 86.4099 25.946 84.8052 25.3828 82.1641C24.8197 79.523 24.8352 75.9586 25.5 71.8204C25.8016 69.943 26.2523 67.9328 26.8125 65.8477ZM73.1211 65.8633C73.686 67.9611 74.138 69.9787 74.4414 71.8672C75.1068 76.0091 75.1234 79.5779 74.5586 82.2266C73.9938 84.8753 72.9374 86.496 71.4961 87.3282C70.0548 88.1603 68.1192 88.2689 65.543 87.4336C62.9667 86.5984 59.8832 84.7995 56.6289 82.1524C55.3569 81.1177 54.0575 79.9166 52.7461 78.6368C55.6773 75.4692 58.5909 71.8416 61.3867 67.8008C65.5574 67.3745 69.4916 66.7198 73.1211 65.8633ZM43.7344 68.2032C45.7879 68.3151 47.8685 68.3907 50 68.3907C52.061 68.3907 54.0741 68.3196 56.0625 68.2149C54.0299 70.9572 51.9581 73.4503 49.8945 75.6954C47.8322 73.4455 45.7643 70.948 43.7344 68.2032Z" fill="#1D1037"/>
</svg>
