<svg width="100" height="100" viewBox="0 0 100 100" fill="none" xmlns="http://www.w3.org/2000/svg">
<g clip-path="url(#clip0_668_372)">
<path d="M86.0601 55.604C82.5661 55.622 79.5381 56.462 77.0001 57.712C76.0721 55.86 75.1321 54.23 74.9741 53.018C74.7901 51.604 74.5761 50.76 74.7981 49.074C75.0201 47.388 75.9961 45.002 75.9801 44.824C75.9661 44.646 75.7621 43.788 73.7461 43.772C71.7301 43.758 70.0061 44.16 69.8021 44.692C69.5981 45.224 69.2101 46.422 68.9701 47.672C68.6161 49.5 64.9461 56.02 62.8601 59.43C62.1781 58.098 61.5981 56.926 61.4781 55.998C61.2941 54.584 61.0801 53.74 61.3021 52.054C61.5241 50.368 62.5001 47.982 62.4841 47.804C62.4701 47.626 62.2661 46.768 60.2501 46.752C58.2341 46.738 56.5101 47.14 56.3061 47.672C56.1021 48.204 55.8861 49.448 55.4741 50.652C55.0601 51.856 50.1801 62.73 48.9021 65.548C48.2501 66.984 47.6841 68.138 47.2841 68.926C47.2821 68.924 47.2821 68.922 47.2821 68.922C47.2821 68.922 47.2581 68.974 47.2141 69.064C46.8721 69.734 46.6681 70.106 46.6681 70.106C46.6681 70.106 46.6701 70.112 46.6741 70.12C46.4021 70.612 46.1121 71.07 45.9681 71.07C45.8681 71.07 45.6661 69.758 46.0121 67.96C46.7381 64.188 48.4821 58.304 48.4661 58.102C48.4581 57.998 48.7901 56.974 47.3261 56.436C45.9041 55.916 45.3961 56.784 45.2661 56.786C45.1401 56.788 45.0461 57.092 45.0461 57.092C45.0461 57.092 46.6321 50.476 42.0221 50.476C39.1421 50.476 35.1501 53.628 33.1821 56.484C31.9421 57.16 29.2861 58.61 26.4681 60.158C25.3861 60.752 24.2821 61.36 23.2341 61.938C23.1621 61.86 23.0921 61.78 23.0181 61.702C17.4301 55.74 7.10214 51.524 7.54014 43.51C7.70014 40.596 8.71214 32.924 27.3881 23.618C42.6861 15.994 54.9341 18.092 57.0501 22.742C60.0741 29.384 50.5041 41.73 34.6181 43.51C28.5641 44.188 25.3781 41.842 24.5841 40.968C23.7501 40.048 23.6261 40.006 23.3141 40.18C22.8061 40.462 23.1281 41.274 23.3141 41.758C23.7881 42.992 25.7341 45.182 29.0541 46.27C31.9741 47.228 39.0801 47.754 47.6761 44.43C57.3021 40.706 64.8181 30.348 62.6121 21.69C60.3661 12.884 45.7661 9.98996 31.9481 14.898C23.7241 17.82 14.8221 22.406 8.42014 28.392C0.808141 35.512 -0.403859 41.708 0.0961411 44.296C1.87414 53.496 14.5521 59.486 19.6301 63.926C19.3801 64.064 19.1441 64.194 18.9301 64.312C16.3841 65.572 6.72014 70.63 4.30214 75.974C1.56014 82.036 4.73814 86.386 6.84414 86.972C13.3641 88.786 20.0561 85.522 23.6521 80.158C27.2481 74.796 26.8081 67.814 25.1581 64.626C25.1381 64.586 25.1141 64.548 25.0941 64.508C25.7521 64.118 26.4221 63.724 27.0861 63.334C28.3821 62.574 29.6541 61.864 30.7581 61.262C30.1401 62.954 29.6881 64.982 29.4521 67.912C29.1761 71.354 30.5861 75.802 32.4321 77.552C33.2441 78.322 34.2221 78.34 34.8421 78.34C36.9901 78.34 37.9701 76.554 39.0481 74.44C40.3721 71.848 41.5461 68.832 41.5461 68.832C41.5461 68.832 40.0721 76.982 44.0881 76.982C45.5501 76.982 47.0221 75.084 47.6781 74.118C47.6801 74.128 47.6801 74.134 47.6801 74.134C47.6801 74.134 47.7181 74.072 47.7921 73.944C47.9441 73.712 48.0301 73.564 48.0301 73.564C48.0301 73.564 48.0341 73.548 48.0381 73.522C48.6261 72.502 49.9301 70.174 51.8861 66.334C54.4121 61.374 56.8361 55.162 56.8361 55.162C56.8361 55.162 57.0621 56.682 57.8001 59.192C58.2341 60.67 59.1581 62.304 59.8861 63.87C59.3001 64.684 58.9401 65.15 58.9401 65.15C58.9401 65.15 58.9441 65.158 58.9501 65.174C58.4821 65.796 57.9561 66.466 57.4061 67.122C55.4121 69.498 53.0361 72.21 52.7181 72.994C52.3441 73.916 52.4321 74.596 53.1561 75.14C53.6841 75.538 54.6261 75.6 55.6101 75.534C57.4021 75.414 58.6641 74.968 59.2861 74.698C60.2561 74.356 61.3861 73.816 62.4461 73.036C64.4021 71.598 65.5821 69.54 65.4701 66.814C65.4081 65.312 64.9281 63.824 64.3221 62.418C64.5001 62.162 64.6781 61.906 64.8561 61.644C67.9401 57.134 70.3321 52.18 70.3321 52.18C70.3321 52.18 70.5581 53.7 71.2961 56.21C71.6701 57.482 72.4081 58.868 73.0701 60.228C70.1701 62.584 68.3721 65.322 67.7461 67.118C66.5921 70.44 67.4961 71.946 69.1921 72.288C69.9601 72.444 71.0461 72.092 71.8621 71.746C72.8781 71.41 74.0981 70.848 75.2381 70.01C77.1941 68.572 79.0761 66.558 78.9621 63.832C78.9101 62.592 78.5741 61.36 78.1181 60.176C80.5761 59.152 83.7601 58.582 87.8141 59.056C96.5121 60.072 98.2181 65.502 97.8921 67.774C97.5661 70.048 95.7421 71.296 95.1321 71.674C94.5221 72.052 94.3361 72.182 94.3881 72.462C94.4621 72.87 94.7441 72.854 95.2641 72.766C95.9801 72.646 99.8301 70.918 99.9961 66.722C100.204 61.406 95.1001 55.556 86.0601 55.604ZM19.0241 78.204C16.1441 81.346 12.1181 82.534 10.3921 81.534C8.52814 80.454 9.26614 75.826 12.8021 72.492C14.9561 70.46 17.7381 68.588 19.5841 67.434C20.0041 67.182 20.6201 66.81 21.3701 66.36C21.4941 66.29 21.5641 66.25 21.5641 66.25L21.5621 66.246C21.7061 66.16 21.8561 66.07 22.0081 65.978C23.2941 70.726 22.0481 74.906 19.0241 78.204ZM40.0101 63.936C39.0061 66.382 36.9061 72.64 35.6281 72.304C34.5301 72.016 33.8621 67.258 35.4081 62.578C36.1861 60.222 37.8481 57.406 38.8261 56.312C40.3981 54.554 42.1301 53.978 42.5501 54.692C43.0881 55.6 40.6401 62.402 40.0101 63.936ZM57.3501 72.21C56.9241 72.432 56.5341 72.572 56.3541 72.464C56.2201 72.384 56.5301 72.092 56.5301 72.092C56.5301 72.092 58.6981 69.758 59.5541 68.696C60.0501 68.078 60.6281 67.344 61.2541 66.524C61.2601 66.606 61.2621 66.688 61.2621 66.768C61.2541 69.564 58.5541 71.45 57.3501 72.21ZM70.7081 69.164C70.3901 68.938 70.4441 68.208 71.4861 65.936C71.8961 65.044 72.8301 63.54 74.4561 62.104C74.6441 62.694 74.7601 63.26 74.7561 63.788C74.7341 67.306 72.2241 68.62 70.7081 69.164Z" fill="#1D1037"/>
</g>
<defs>
<clipPath id="clip0_668_372">
<rect width="100" height="100" fill="white"/>
</clipPath>
</defs>
</svg>
