<svg width="100" height="100" viewBox="0 0 100 100" fill="none" xmlns="http://www.w3.org/2000/svg">
<g clip-path="url(#clip0_668_344)">
<path d="M40 18V28H20V38H10V48H2.25C1.28125 48 0.484376 48.6719 0.3125 49.625C0.296876 49.6953 0 51.3672 0 53.5C0 54.8984 0.132813 56.4219 0.375 57.9375C2.66406 57.3906 6.85938 56.5703 6.125 53.875C10.0703 58.4453 19.5391 57.0625 21.9375 54.8125C24.6172 58.6953 40.2266 57.2109 41.3125 54.1875C44.6719 58.125 55.0859 58.125 58.4375 54.1875C59.5234 57.2109 75.0703 58.6953 77.75 54.8125C78.6016 55.6094 80.375 56.2734 82.4375 56.625C83.1328 55.3047 83.7734 53.9766 84.375 52.5625C97.0781 52.4062 99.8203 43.2734 99.9375 42.875C100.156 42.1094 99.8594 41.3203 99.25 40.8125C99.0391 40.6328 94.3516 36.8281 86.75 38.125C84.6172 31.1797 79.125 28.0156 78.875 27.875C78.1562 27.4688 77.2656 27.5312 76.625 28.0625C76.4219 28.2266 71.6953 32.2344 72.4375 40.4375C72.625 42.5 73.1641 44.3203 74 45.9375C72.3594 46.8516 69.5391 48 65 48H64V38H54V18H40ZM82.4375 56.625C82.1953 57.0938 81.8828 57.5469 81.625 58H99.6875C97.5156 57.4531 92.8516 56.7188 93.625 53.875C91.0703 56.8281 86.2188 57.2656 82.4375 56.625ZM81.625 58H0.375C0.859376 60.9375 1.85938 64.0156 3.375 67C14.2344 69.5547 25.6328 65.6641 25.75 65.625C26.7969 65.2578 27.8906 65.8359 28.25 66.875C28.6172 67.9141 28.1016 69.0781 27.0625 69.4375C26.6797 69.5703 19.8125 71.875 11.375 71.875C9.70313 71.875 7.94531 71.7812 6.1875 71.5625C11.4375 78.5234 20.3359 84 34 84C55.6094 84 72.2266 74.8203 81.625 58ZM0.375 58C0.367188 57.9688 0.382812 57.9688 0.375 57.9375C0.242188 57.9688 0.117188 57.9688 0 58H0.375ZM44 22H50V28H44V22ZM24 32H30V38H24V32ZM34 32H40V38H34V32ZM44 32H50V38H44V32ZM14 42H20V48H14V42ZM24 42H30V48H24V42ZM34 42H40V48H34V42ZM44 42H50V48H44V42ZM54 42H60V48H54V42ZM32 62C32.2578 62 32.5234 62.0391 32.75 62.125C32.5078 62.2656 32.3125 62.5078 32.3125 62.8125C32.3125 63.2656 32.6719 63.6875 33.125 63.6875C33.4297 63.6875 33.7344 63.5 33.875 63.25C33.9766 63.4844 34 63.7266 34 64C34 65.1016 33.1016 66 32 66C30.8984 66 30 65.1016 30 64C30 62.8984 30.8984 62 32 62Z" fill="#1D1037"/>
</g>
<defs>
<clipPath id="clip0_668_344">
<rect width="100" height="100" fill="white"/>
</clipPath>
</defs>
</svg>
