<svg width="100" height="100" viewBox="0 0 100 100" fill="none" xmlns="http://www.w3.org/2000/svg">
<path d="M90.548 4.65C90.168 4.236 89.634 4 89.072 4H10.928C10.366 4 9.83197 4.236 9.45197 4.65C9.07197 5.064 8.88597 5.62 8.93597 6.178L15.976 85.032C16.05 85.856 16.624 86.55 17.42 86.778L49.44 95.924C49.618 95.974 49.804 96 49.988 96C50.172 96 50.358 95.974 50.536 95.924L82.584 86.778C83.38 86.55 83.954 85.856 84.028 85.032L91.064 6.178C91.114 5.62 90.926 5.064 90.548 4.65ZM24 58.008L38 61.892V22H46V74L24 67.898V58.008ZM76.108 44L74 68.5L54 74V64.798L67.5 61.088L68 53.588L54 56V22H78L77.31 30H62V46L76.108 44Z" fill="#1D1037"/>
</svg>
