<svg width="80" height="100" viewBox="0 0 80 100" fill="none" xmlns="http://www.w3.org/2000/svg">
<path d="M46.4968 0C52.1019 12.7286 26.4013 20.5893 24.0127 31.1926C21.8232 40.9364 39.2834 52.2585 39.2994 52.2585C36.6481 48.2266 34.6975 44.9058 32.0382 38.6313C27.5398 28.0202 59.4347 18.4171 46.4968 0ZM63.5669 17.6279C63.5669 17.6279 41.0191 19.05 39.8726 33.1929C39.3631 39.4908 45.8041 42.8039 45.9873 47.3827C46.1385 51.1255 42.1656 54.2589 42.1656 54.2589C42.1656 54.2589 49.3949 52.9071 51.6561 47.1952C54.164 40.8582 46.7675 36.5763 47.5159 31.5052C48.2325 26.6528 63.5669 17.6279 63.5669 17.6279ZM28.1529 50.3207C28.1529 50.3207 7.51592 50.0316 7.51592 55.7591C7.51592 61.7445 34.5303 62.1899 53.8217 58.5096C53.8217 58.5096 58.949 55.0481 60.3185 53.7588C47.6752 56.2905 18.8535 56.5717 18.8535 54.3839C18.8535 52.3679 28.1529 50.3207 28.1529 50.3207ZM67.8344 50.3207C65.8121 50.477 63.6306 51.2428 61.6561 52.6336C66.3057 51.6491 70.2548 54.4777 70.2548 57.6969C70.2548 64.9481 59.5541 71.7617 59.5541 71.7617C59.5541 71.7617 76.1147 69.9177 76.1147 58.0095C76.1147 52.6024 72.285 49.9769 67.8344 50.3207ZM23.1847 61.4475C20.0159 61.4475 15.2866 63.8854 15.2866 66.1983C15.2866 70.8475 39.1083 74.4262 56.7516 67.6361L50.6369 63.948C38.6783 67.7064 16.6561 66.4796 23.1847 61.4475ZM26.1147 71.8868C21.7755 71.8868 18.9172 74.4575 18.9172 76.3875C18.9172 82.3572 44.8328 82.9589 55.0955 76.8876L48.5987 72.8244C40.9315 76.0046 21.6879 76.4891 26.1147 71.8868ZM11.6561 77.2626C4.58599 77.122 0 80.2397 0 82.826C0 96.5783 72.3567 95.9454 72.3567 81.8884C72.3567 79.5521 69.6099 78.4191 68.5987 77.8877C74.5143 91.3274 9.36306 90.257 9.36306 82.326C9.36306 80.521 14.1561 78.7941 18.5987 79.638L14.8408 77.5127C13.7341 77.3486 12.6672 77.2861 11.6561 77.2626ZM80 86.5141C68.9968 96.7502 41.1147 100.462 13.0573 94.1404C41.1067 105.408 79.8647 99.0865 80 86.5141Z" fill="#1D1037"/>
</svg>
