<svg width="100" height="100" viewBox="0 0 100 100" fill="none" xmlns="http://www.w3.org/2000/svg">
<path d="M50 24C23.0859 24 2 35.4219 2 50C2 64.5781 23.0859 76 50 76C76.9141 76 98 64.5781 98 50C98 35.4219 76.9141 24 50 24ZM45.0156 32H50.2578L48.5938 40H53.2734C56.2422 40 58.2344 40.4141 59.3672 41.4531C60.4766 42.4766 60.8125 44.1562 60.3672 46.4453L58.2891 56H52.9609L54.875 47.1641C55.1094 45.9531 55.0156 45.1094 54.6094 44.6641C54.2031 44.2188 53.3125 44 51.9766 44H47.7812L45.25 56H40L45.0156 32ZM22 40H32.6641C37.75 40 40.8281 43.4062 39.625 48.4922C38.2266 54.3984 34.4766 56 27.5859 56H24.2891L23.2422 62H17.9453L22 40ZM64 40H74.6641C79.75 40 82.8281 43.4062 81.625 48.4922C80.2266 54.3984 76.4766 56 69.5859 56H66.2891L65.2422 62H59.9453L64 40ZM26.5391 44L25.0312 52H28.4531C31.4141 52 34.1641 51.6641 34.625 47.25C34.7969 45.5391 34.0859 44 30.6641 44H26.5391ZM68.5391 44L67.0312 52H70.4531C73.4141 52 76.1641 51.6641 76.625 47.25C76.7969 45.5391 76.0859 44 72.6641 44H68.5391Z" fill="#1D1037"/>
</svg>
