<svg width="100" height="100" viewBox="0 0 100 100" fill="none" xmlns="http://www.w3.org/2000/svg">
<path d="M66.5649 18.75C66.0743 18.75 65.625 19.1431 65.625 19.6899V36.8652L61.731 34.5947C61.4872 34.451 61.2125 34.3811 60.9375 34.3811C60.6625 34.3811 60.3878 34.451 60.144 34.5947L50.7874 40.0513C50.2999 40.3325 50 40.853 50 41.4124V52.3376C50 52.9001 50.2999 53.4175 50.7874 53.6987L60.144 59.1553C60.3878 59.299 60.6625 59.3689 60.9375 59.3689C61.2125 59.3689 61.4872 59.299 61.731 59.1553L71.0876 53.6987C71.5751 53.4175 71.875 52.897 71.875 52.3376V46.875V41.4124V22.5952C71.875 22.039 71.578 21.5276 71.0999 21.2463L67.0288 18.8782C66.8757 18.7907 66.7212 18.75 66.5649 18.75ZM35.9375 34.3811C35.6633 34.3811 35.3894 34.4525 35.144 34.5947L25.7874 40.0513C25.2999 40.3325 25 40.853 25 41.4124V52.3376C25 52.9001 25.2999 53.4175 25.7874 53.6987L35.144 59.1553C35.6347 59.4396 36.2403 59.4396 36.731 59.1553L46.0876 53.6987C46.5751 53.4175 46.875 52.897 46.875 52.3376V41.4124C46.875 40.8499 46.5751 40.3325 46.0876 40.0513L36.731 34.5947C36.4856 34.4525 36.2117 34.3811 35.9375 34.3811ZM85.9375 34.3811C85.6625 34.3811 85.3878 34.451 85.144 34.5947L75.7874 40.0513C75.2999 40.3325 75 40.853 75 41.4124V52.3376C75 52.9001 75.2999 53.4175 75.7874 53.6987L84.8633 59.1858C85.3508 59.4827 85.9625 59.4855 86.4563 59.198L90.918 56.604C91.3805 56.3384 91.3836 55.6674 90.918 55.3955L81.25 49.7009V44.0918L85.9375 41.3635L90.625 44.0918V47.998C90.625 48.5199 91.0637 48.6003 91.3574 48.4253C92.5387 47.7315 96.0999 45.6665 96.0999 45.6665C96.578 45.3884 96.875 44.8739 96.875 44.3176V41.4124C96.875 40.8499 96.5751 40.3325 96.0876 40.0513L86.731 34.5947C86.4841 34.451 86.2125 34.3811 85.9375 34.3811ZM10.9375 34.3872C10.6625 34.3872 10.3878 34.4571 10.144 34.6008L0.787354 40.0513C0.299854 40.3356 0 40.856 0 41.4185V55.365C0 56.0462 0.736963 56.4686 1.32446 56.1279L5.47485 53.7109C5.95298 53.4297 6.25 52.9183 6.25 52.3621V44.104L10.9375 41.3696L15.625 44.104V52.3621C15.625 52.9183 15.922 53.4297 16.4001 53.7109L20.5505 56.1279C21.138 56.4717 21.875 56.0462 21.875 55.365V41.4185C21.875 40.856 21.5751 40.3356 21.0876 40.0513L11.731 34.6008C11.4872 34.4571 11.2125 34.3872 10.9375 34.3872ZM60.9375 41.3635L65.625 44.0979V46.875V49.6521L60.9375 52.3865L56.25 49.6521V44.0979L60.9375 41.3635ZM85.9375 43.7622L83.2581 45.3247V48.4436L85.9375 50L88.6169 48.4436V45.3247L85.9375 43.7622ZM48.1445 56.2439C47.823 56.2439 47.498 56.3226 47.2168 56.4819L38.4277 61.5601C37.8496 61.8788 37.5 62.5061 37.5 63.1592V73.3032C37.5 73.9563 37.8652 74.5711 38.4277 74.9023L40.741 76.2207C41.8503 76.7676 42.2581 76.77 42.7612 76.77C44.4175 76.77 45.3613 75.7795 45.3613 74.0295V64.0076C45.3613 63.8544 45.2425 63.7451 45.105 63.7451H43.9941C43.841 63.7451 43.7317 63.8701 43.7317 64.0076V74.0295C43.7317 74.7889 42.9292 75.5677 41.6199 74.9146L39.2151 73.5291C39.137 73.4822 39.0808 73.3877 39.0808 73.2971V63.1531C39.0808 63.0625 39.1245 62.9558 39.2151 62.9089L48.0042 57.843C48.0979 57.7961 48.2038 57.7961 48.2788 57.843L57.074 62.9089C57.1646 62.9558 57.2083 63.0468 57.2083 63.1531V73.2971C57.2083 73.4034 57.149 73.4944 57.074 73.5413L48.2788 78.6255C48.2007 78.6724 48.0792 78.6724 48.0042 78.6255L45.7581 77.2888C45.6987 77.2576 45.6038 77.2393 45.5444 77.2705C44.9226 77.6361 44.7981 77.684 44.22 77.8809C44.0668 77.9277 43.8587 78.0216 44.2993 78.2654L47.2168 79.9988C47.5074 80.1519 47.8258 80.2429 48.1445 80.2429C48.4789 80.2429 48.8038 80.1522 49.0601 79.9866L57.8491 74.9023C58.4272 74.5836 58.7769 73.9563 58.7769 73.3032V63.1592C58.7769 62.5061 58.4116 61.8944 57.8491 61.5601L49.0601 56.4819C48.7866 56.3226 48.466 56.2439 48.1445 56.2439ZM61.853 60.9253C60.9562 60.9253 60.1685 61.6505 60.1685 62.6099C60.1685 63.538 60.9249 64.3005 61.853 64.3005C62.7812 64.3005 63.5376 63.538 63.5376 62.6099C63.5376 61.6505 62.7655 60.9097 61.853 60.9253ZM61.8347 61.1938C62.6285 61.1938 63.269 61.8192 63.269 62.6099C63.269 63.3849 62.6253 64.0254 61.8347 64.0442C61.0566 64.0442 60.4248 63.4005 60.4248 62.6099C60.4248 61.8192 61.0597 61.1938 61.8347 61.1938ZM61.2183 61.6516V63.5498H61.5784V62.793H61.9141C62.0516 62.793 62.0842 62.8515 62.1155 62.9578C62.1155 62.9734 62.1731 63.4653 62.1887 63.5559H62.5793C62.5356 63.4653 62.5034 63.2056 62.4878 63.0493C62.444 62.8056 62.4298 62.6377 62.1704 62.6221C62.3079 62.5752 62.5366 62.5021 62.5366 62.1521C62.5366 61.649 62.0995 61.6516 61.8713 61.6516H61.2183ZM61.5784 61.9568H61.8835C61.9773 61.9568 62.1582 61.9538 62.1582 62.2131C62.1582 62.3194 62.1121 62.4909 61.8652 62.4878H61.5784V61.9568ZM50.5005 63.5071C47.9911 63.5071 46.5027 64.5766 46.5027 66.3391C46.5027 68.2704 47.9936 68.787 50.3967 69.0308C53.2717 69.3183 53.4973 69.7317 53.4973 70.2942C53.4973 71.2817 52.7046 71.6919 50.8484 71.6919C48.5203 71.6919 48.0081 71.1147 47.8394 69.9585C47.8237 69.8366 47.7144 69.7449 47.5769 69.7449H46.4355C46.298 69.7449 46.1792 69.8542 46.1792 70.0073C46.1792 71.4823 46.9832 73.2483 50.8301 73.2483C53.652 73.2452 55.249 72.1519 55.249 70.2332C55.249 68.3332 53.9697 67.8278 51.2634 67.4622C48.5259 67.0965 48.2544 66.9126 48.2544 66.272C48.2544 65.7407 48.4786 65.0452 50.5005 65.0452C52.3099 65.0452 52.9843 65.4409 53.2593 66.6565C53.2905 66.7784 53.3754 66.8518 53.4973 66.8518H54.6387C54.7137 66.8518 54.778 66.8223 54.8218 66.7786C54.8687 66.7192 54.8984 66.6583 54.8828 66.5833C54.7016 64.4833 53.3161 63.5071 50.5005 63.5071Z" fill="#1D1037"/>
</svg>
