<svg width="100" height="100" viewBox="0 0 100 100" fill="none" xmlns="http://www.w3.org/2000/svg">
<path d="M49 4C31.6016 4 28 12.9844 28 18.1875V28H48V30H18.1875C11.5859 30 4 35.2031 4 50C4 64.7969 11.5859 70 18.1875 70H30V58C30 53.6016 33.6016 50 38 50H62C65.3984 50 68 47.3984 68 44V18.1875C68 11.1875 61.3984 4 49 4ZM40 14C42.2031 14 44 15.7969 44 18C44 20.2031 42.2031 22 40 22C37.7969 22 36 20.2031 36 18C36 15.7969 37.7969 14 40 14ZM70 30V44C70 48.3984 66.3984 52 62 52H38C34.6016 52 32 54.6016 32 58V81.8125C32 88.8125 38.6016 96 51 96C68.3984 96 72 87.0156 72 81.8125V72H52V70H81.8125C88.4141 70 96 64.7969 96 50C96 35.2031 88.4141 30 81.8125 30H70ZM60 78C62.2031 78 64 79.7969 64 82C64 84.2031 62.2031 86 60 86C57.7969 86 56 84.2031 56 82C56 79.7969 57.7969 78 60 78Z" fill="#1D1037"/>
</svg>
