<svg width="100" height="100" viewBox="0 0 100 100" fill="none" xmlns="http://www.w3.org/2000/svg">
<g clip-path="url(#clip0_669_382)">
<path d="M62.3359 16C61.3984 15.9765 60.5781 16.3359 60.1562 17.375C59.4375 19.1172 61.2266 20.8203 61.8672 21.7109C62.3125 22.3281 62.8906 23.0234 63.2109 23.7187C63.4219 24.1797 63.4531 24.6406 63.6328 25.125C64.0781 26.3203 64.7891 27.6797 65.3594 28.789C65.6484 29.3515 65.9688 29.9375 66.3359 30.4375C66.5625 30.7422 66.9453 30.8828 67.0078 31.3515C66.6328 31.8828 66.6094 32.7031 66.3984 33.375C65.4453 36.3828 65.8047 40.125 67.1875 42.3437C67.6172 43.0312 68.625 44.4922 70 43.9375C71.2031 43.4453 70.9375 41.9218 71.2812 40.5703C71.3594 40.2734 71.3125 40.0468 71.4688 39.8437V39.9062C71.8281 40.6406 72.1953 41.375 72.5625 42.1015C73.3828 43.414 74.8281 44.7812 76.0469 45.7109C76.6797 46.1875 77.1797 47.0156 78 47.2968V47.2343H77.9375C77.7812 46.9843 77.5312 46.8828 77.3281 46.6875C76.8516 46.2187 76.3203 45.6328 75.9297 45.0937C74.8125 43.5859 73.8281 41.9297 72.9375 40.2109C72.5078 39.3906 72.1328 38.4843 71.7734 37.6484C71.6328 37.3203 71.6328 36.8359 71.3438 36.664C70.9453 37.2812 70.3672 37.7734 70.0625 38.5C69.5781 39.6562 69.5078 41.0703 69.3281 42.5312C69.2188 42.5703 69.2656 42.539 69.2109 42.5937C68.3594 42.3828 68.0547 41.5078 67.7422 40.7578C66.9453 38.8593 66.7891 35.7968 67.5 33.6172C67.6797 33.0468 68.5 31.2656 68.1719 30.7422C68.0156 30.2187 67.4844 29.9218 67.1953 29.5234C66.8281 29.0312 66.4688 28.3828 66.2188 27.8125C65.5625 26.3281 64.9453 24.6093 64.25 23.1093C63.9219 22.3906 63.3672 21.6718 62.9062 21.0312C62.3984 20.3281 61.8359 19.8125 61.4375 18.9531C61.3047 18.6562 61.1094 18.1718 61.3203 17.8593C61.3828 17.6484 61.4766 17.5625 61.6875 17.4922C62.0391 17.2187 63.0234 17.5781 63.3984 17.7343C64.375 18.1406 65.1953 18.5312 66.0234 19.0781C66.4219 19.3437 66.8203 19.8515 67.3047 20H67.8516C68.7188 20.1953 69.6797 20.0547 70.4766 20.3047C71.8984 20.7343 73.1719 21.4062 74.3203 22.1328C77.8438 24.3515 80.7266 27.5156 82.6875 31.289C83.0078 31.8984 83.1484 32.4843 83.4297 33.125C83.9844 34.4218 84.6953 35.7656 85.2578 37.0312C85.8125 38.3047 86.3594 39.5781 87.1484 40.6328C87.5625 41.1875 89.1719 41.4922 89.8984 41.7968C90.4062 42.0156 91.25 42.2422 91.7266 42.5312C92.6562 43.0859 93.5469 43.75 94.4141 44.3672C94.8516 44.6718 96.1797 45.3359 96.25 45.8906C94.1016 45.8359 92.4609 46.0312 91.0625 46.625C90.6641 46.7968 90.0234 46.7968 89.9609 47.2968C90.1719 47.5234 90.2109 47.8672 90.3828 48.1484C90.7188 48.6875 91.2812 49.414 91.7891 49.7968C92.3438 50.2109 92.9062 50.6562 93.5 51.0234C94.5469 51.6562 95.7188 52.0234 96.7344 52.664C97.3281 53.0468 97.9297 53.5234 98.5078 53.9453C98.7969 54.164 98.9844 54.4922 99.3594 54.625V54.5625C99.1641 54.3125 99.1172 53.9687 98.9375 53.7109L98.1328 52.9062C97.3594 51.8828 96.375 50.9765 95.3281 50.2265C94.4922 49.625 92.625 48.8125 92.2812 47.8437L92.2188 47.7812C92.8047 47.7187 93.5 47.5 94.0469 47.3515C94.9688 47.1093 95.7812 47.1718 96.7266 46.9297C97.1562 46.8047 97.5859 46.6797 98.0156 46.5625V46.3125C97.5391 45.8281 97.1953 45.1718 96.6719 44.7265C95.3047 43.5625 93.8125 42.3984 92.2734 41.4297C91.4219 40.8906 90.3672 40.539 89.4688 40.0859C89.1641 39.9297 88.6328 39.8515 88.4297 39.5937C87.9531 38.9922 87.6953 38.2265 87.3281 37.5234C86.5625 36.0468 85.8125 34.4375 85.1328 32.8828C84.6719 31.8281 84.3672 30.7812 83.7891 29.8281C81.0156 25.2734 78.0312 22.5156 73.4062 19.8125C72.4219 19.2343 71.2422 19.0156 69.9922 18.7187C69.3125 18.6718 68.6484 18.6328 67.9688 18.5937C67.5625 18.4218 67.1328 17.9218 66.75 17.6718C65.7891 17.0703 63.8984 16.0234 62.3359 16ZM68.9531 22.625C68.5078 22.6172 68.1875 22.6797 67.8516 22.75V22.8125H67.9141C68.125 23.25 68.5078 23.5312 68.7734 23.9062C68.9766 24.3359 69.1719 24.7656 69.375 25.1953L69.4375 25.1328C69.8125 24.8672 69.9922 24.4375 69.9922 23.789C69.8359 23.6328 69.8125 23.4297 69.6875 23.2422C69.5078 22.9843 69.1719 22.8437 68.9531 22.625ZM3.73438 47.9922C3.13281 48.0156 2.47656 48.1328 1.76563 48.3593C0.578126 48.7187 -0.0078125 49.4297 -0.0078125 50.875V66H4V51.2422L9.55469 63.8593C10.2422 65.4297 11.1797 65.9922 13.0156 65.9922C14.8594 65.9922 15.7578 65.4297 16.4453 63.8593L22 51.5625V66H26V50.875C26 49.4297 25.4219 48.7187 24.2266 48.3593C21.3828 47.4609 19.4688 48.2343 18.6094 50.1797L12.9062 63.0078L7.39063 50.1797C6.76563 48.7187 5.51563 47.9218 3.73438 47.9922ZM52.4922 48C50.9141 48 46 48.1875 46 52V54.4687C46 56.2187 47.5391 57.6484 50.875 58C51.25 58.0234 51.625 58.0547 52 58.0547C52 58.0547 55.8906 57.9765 56 58C58.25 58 58 59.75 58 60V62C58 62.2734 57.9375 64 55.9766 64H46V66H56.0156C57.3281 66 58.6016 65.7265 59.6172 65.25C61.3047 64.4765 62 63.4297 62 62.0547V59.1953C62 56.125 58.1875 56 56 56H52C50.4297 56 50.1875 55.0468 50 54V52C50.1875 51.2031 50.5391 50.125 51.9297 50H62V48H52.4922ZM67.9609 48C65.0078 48.4062 63.9688 49.875 63.9688 52V62C63.9688 63.9453 65.0547 65.1172 67.2891 65.7265C68.0391 65.9375 68.7188 66.0234 69.3594 66.0234L73.8125 66H76.4297L78.6562 68H83.1562L80.0625 65.2109C81.5156 64.6093 81.9688 63.6875 81.9688 61.9609V52C81.9688 49.875 80.5859 48.4062 77.6328 48H67.9609ZM84 48V61.914C84 64.3281 85.3672 65.6875 88.9844 65.9609C89.3203 65.9765 89.6641 66 90 66H100V64H90.7578C88.6953 64 88 63.1328 88 61.8984V48H84ZM70.3438 50H75.4922C76.8516 50 77.7656 51.0937 77.9688 52C77.9688 52 78 61.3125 78 62C78 62.6875 77.6172 63 77.6172 63L76.5312 62H72L74.2266 64H70.3438C68.9531 64 68.1719 62.9687 67.9688 62V52.2031C67.9688 51.1406 68.7812 50 70.3438 50ZM28 54C28.0781 54.0781 28 62.5234 28 62.6875C28.0312 64.4375 30.25 65.9687 33.7266 66H40V66.1328C40 66.5078 40.2734 67.7578 38 68C37.9766 68 28.0234 68 28 68V70H38.4297C40.1953 69.9453 44.0234 69.5468 44 66.4843C44 66.4297 44.0156 54 44 54H40V64C39.9375 64 35.0469 64.0156 34.0625 64C32.1328 63.9687 31.9688 62.8672 32 62.4453V54H28Z" fill="#1D1037"/>
</g>
<defs>
<clipPath id="clip0_669_382">
<rect width="100" height="100" fill="white"/>
</clipPath>
</defs>
</svg>
