<svg width="406" height="306" viewBox="0 0 406 306" fill="none" xmlns="http://www.w3.org/2000/svg">
<path d="M296.38 158.359C296.38 158.359 311.432 155.923 310.417 165.129H296.38V158.359Z" fill="#F4A28C"/>
<path d="M262.966 141.612L258.419 163.688H283.956L280.475 138.313L262.966 141.612Z" fill="#C9C9C9"/>
<path d="M322.039 70.3485H220.732V139.155H322.039V70.3485Z" fill="#24285B"/>
<path d="M288.199 115.841H256.328V118.835H288.199V115.841Z" fill="#54CE5C"/>
<path d="M302.399 123.697H270.528V126.691H302.399V123.697Z" fill="#FFD200"/>
<path d="M322.039 133.238H220.732V146.26H322.039V133.238Z" fill="#E6E6E6"/>
<path d="M275.4 108.604H248.655V111.598H275.4V108.604Z" fill="#54CE5C"/>
<path d="M307.707 108.604H280.962V111.598H307.707V108.604Z" fill="#54CE5C"/>
<path d="M280.242 100.271H256.328V103.265H280.242V100.271Z" fill="#FFD200"/>
<path d="M310.377 100.271H286.463V103.265H310.377V100.271Z" fill="#FFD200"/>
<path d="M250.725 115.841H238.738V118.835H250.725V115.841Z" fill="white"/>
<path d="M262.662 123.697H250.675V126.691H262.662V123.697Z" fill="white"/>
<path d="M243.052 108.604H231.065V111.598H243.052V108.604Z" fill="white"/>
<path opacity="0.14" d="M233.968 94.5056C233.968 94.5056 283.459 89.532 272.538 146.271L276.303 160.105L260.855 151.721L262.093 146.281H253.913L233.968 94.5056Z" fill="black"/>
<path d="M233.968 78.5193C234.747 78.5193 235.379 77.8877 235.379 77.1085C235.379 76.3293 234.747 75.6976 233.968 75.6976C233.189 75.6976 232.557 76.3293 232.557 77.1085C232.557 77.8877 233.189 78.5193 233.968 78.5193Z" fill="#54CE5C"/>
<path d="M237.926 78.5193C238.705 78.5193 239.337 77.8877 239.337 77.1085C239.337 76.3293 238.705 75.6976 237.926 75.6976C237.147 75.6976 236.515 76.3293 236.515 77.1085C236.515 77.8877 237.147 78.5193 237.926 78.5193Z" fill="#FFD200"/>
<path d="M243.052 85.8374H231.065V88.8316H243.052V85.8374Z" fill="white"/>
<path d="M250.725 93.3281H238.738V96.3224H250.725V93.3281Z" fill="white"/>
<path d="M280.242 93.3281H256.328V96.3224H280.242V93.3281Z" fill="#FFD200"/>
<path d="M310.377 93.3281H286.463V96.3224H310.377V93.3281Z" fill="#FFD200"/>
<path d="M250.725 100.271H238.738V103.265H250.725V100.271Z" fill="white"/>
<path d="M272.538 85.8374H247.843V88.8316H272.538V85.8374Z" fill="#54CE5C"/>
<path d="M295.233 85.8374H277.704V88.8316H295.233V85.8374Z" fill="#54CE5C"/>
<path d="M272.538 143.053C274.617 143.053 276.303 141.367 276.303 139.287C276.303 137.208 274.617 135.522 272.538 135.522C270.458 135.522 268.772 137.208 268.772 139.287C268.772 141.367 270.458 143.053 272.538 143.053Z" fill="#A5A5A5"/>
<path d="M129.22 160.135H78.2971V163.688H129.22V160.135Z" fill="#C9C9C9"/>
<path d="M98.5971 158.359C98.5971 158.359 83.5446 155.923 84.5596 165.129H98.5971V158.359Z" fill="#F4A28C"/>
<path d="M126.591 141.612L122.044 163.688H147.581L144.1 138.313L126.591 141.612Z" fill="#C9C9C9"/>
<path d="M181.421 70.3485H80.114V139.155H181.421V70.3485Z" fill="#24285B"/>
<path d="M147.581 115.841H115.71V118.835H147.581V115.841Z" fill="#54CE5C"/>
<path d="M181.421 133.238H80.114V146.26H181.421V133.238Z" fill="#E6E6E6"/>
<path d="M134.782 108.604H108.037V111.598H134.782V108.604Z" fill="#54CE5C"/>
<path d="M139.623 100.271H115.71V103.265H139.623V100.271Z" fill="#FFD200"/>
<path d="M110.107 115.841H98.1201V118.835H110.107V115.841Z" fill="white"/>
<path d="M122.044 123.697H110.056V126.691H122.044V123.697Z" fill="white"/>
<path d="M102.434 108.604H90.4468V111.598H102.434V108.604Z" fill="white"/>
<path d="M89.1577 78.5193C89.9369 78.5193 90.5685 77.8877 90.5685 77.1085C90.5685 76.3293 89.9369 75.6976 89.1577 75.6976C88.3785 75.6976 87.7468 76.3293 87.7468 77.1085C87.7468 77.8877 88.3785 78.5193 89.1577 78.5193Z" fill="white"/>
<path d="M93.3496 78.5193C94.1288 78.5193 94.7604 77.8877 94.7604 77.1085C94.7604 76.3293 94.1288 75.6976 93.3496 75.6976C92.5704 75.6976 91.9387 76.3293 91.9387 77.1085C91.9387 77.8877 92.5704 78.5193 93.3496 78.5193Z" fill="#54CE5C"/>
<path d="M97.3081 78.5193C98.0873 78.5193 98.7189 77.8877 98.7189 77.1085C98.7189 76.3293 98.0873 75.6976 97.3081 75.6976C96.5289 75.6976 95.8972 76.3293 95.8972 77.1085C95.8972 77.8877 96.5289 78.5193 97.3081 78.5193Z" fill="#FFD200"/>
<path d="M102.434 85.8374H90.4468V88.8316H102.434V85.8374Z" fill="white"/>
<path d="M110.107 93.3281H98.1201V96.3224H110.107V93.3281Z" fill="white"/>
<path d="M139.623 93.3281H115.71V96.3224H139.623V93.3281Z" fill="#FFD200"/>
<path d="M110.107 100.271H98.1201V103.265H110.107V100.271Z" fill="white"/>
<path d="M131.92 85.8374H107.225V88.8316H131.92V85.8374Z" fill="#54CE5C"/>
<path opacity="0.45" d="M199.001 267.786C289.533 267.786 362.923 258.275 362.923 246.542C362.923 234.81 289.533 225.298 199.001 225.298C108.469 225.298 35.0784 234.81 35.0784 246.542C35.0784 258.275 108.469 267.786 199.001 267.786Z" fill="#E6E6E6"/>
<path d="M174.194 92.2421C174.194 92.2421 138.862 94.6679 136.152 114.288C134.65 125.189 137.634 135.045 140.588 141.693C141.038 142.703 141.246 143.804 141.196 144.909C141.146 146.013 140.838 147.091 140.298 148.056C139.758 149.021 139 149.846 138.085 150.467C137.169 151.087 136.122 151.485 135.026 151.63L98.5972 156.705V165.18L149.286 163.678C154.429 163.526 159.336 161.492 163.078 157.961C166.82 154.431 169.136 149.65 169.586 144.525L174.194 92.2421Z" fill="#54CE5C"/>
<path d="M220.732 92.2421C220.732 92.2421 256.064 94.6679 258.774 114.288C260.276 125.189 257.292 135.045 254.339 141.693C253.888 142.703 253.68 143.804 253.73 144.909C253.781 146.013 254.088 147.091 254.628 148.056C255.168 149.021 255.926 149.846 256.842 150.467C257.757 151.087 258.804 151.485 259.901 151.63L296.329 156.705V165.18L245.63 163.627C240.488 163.473 235.582 161.438 231.84 157.908C228.099 154.378 225.782 149.598 225.33 144.474L220.732 92.2421Z" fill="#54CE5C"/>
<path opacity="0.46" d="M174.194 92.2421C174.194 92.2421 138.862 94.6679 136.152 114.288C134.65 125.189 137.634 135.045 140.588 141.693C141.038 142.703 141.246 143.804 141.196 144.909C141.146 146.013 140.838 147.091 140.298 148.056C139.758 149.021 139 149.846 138.085 150.467C137.169 151.087 136.122 151.485 135.026 151.63L98.5972 156.705V165.18L149.286 163.678C154.429 163.526 159.336 161.492 163.078 157.961C166.82 154.431 169.136 149.65 169.586 144.525L174.194 92.2421Z" fill="white"/>
<path opacity="0.46" d="M220.732 92.2421C220.732 92.2421 256.064 94.6679 258.774 114.288C260.276 125.189 257.292 135.045 254.339 141.693C253.888 142.703 253.68 143.804 253.73 144.909C253.781 146.013 254.088 147.091 254.628 148.056C255.168 149.021 255.926 149.846 256.842 150.467C257.757 151.087 258.804 151.485 259.901 151.63L296.329 156.705V165.18L245.63 163.627C240.488 163.473 235.582 161.438 231.84 157.908C228.099 154.378 225.782 149.598 225.33 144.474L220.732 92.2421Z" fill="white"/>
<path d="M331.205 171.524H64.7671V246.552H331.205V171.524Z" fill="#C9C9C9"/>
<path d="M331.205 163.688H64.7671V182.029H331.205V163.688Z" fill="#E6E6E6"/>
<path d="M194.2 92.2421L198.514 73.4342C198.514 73.4342 198.656 64.624 204.309 66.6743C209.963 68.7246 211.658 78.9355 208.613 82.3865C205.568 85.8375 203.538 81.1279 203.538 81.1279V91.5316L194.2 92.2421Z" fill="#F4A28C"/>
<path opacity="0.1" d="M268.772 164.317C268.772 164.317 245.356 169.301 255.14 178.751C264.925 188.2 259.525 201.487 252.745 205.323C245.965 209.16 217.88 213.788 226.852 246.157H195.195L192.86 228.902L172.56 207.465L181.431 186.789L206.39 152.858L223.3 166.875L232.557 163.688L268.772 164.317Z" fill="black"/>
<path d="M188.567 91.3793C188.567 91.3793 153.346 88.243 148.748 112.024C144.15 135.806 176.925 180.689 176.925 180.689L222.6 178.913C222.6 178.913 293.558 79.2399 188.567 91.3793Z" fill="#54CE5C"/>
<path d="M192.85 228.871C192.85 228.871 194.88 231.551 193.55 234.088C192.221 236.626 194.139 238.778 196.149 237.012C198.159 235.245 198.991 227.877 198.991 227.877L194.454 225.227L192.85 228.871Z" fill="#54CE5C"/>
<path d="M176.925 180.689C176.925 180.689 173.88 196.675 180.731 197.437C187.582 198.198 236.048 200.36 244.168 193.57C252.288 186.779 250.258 177.39 222.6 178.913L176.925 180.689Z" fill="#24285B"/>
<path d="M176.529 183.45C176.529 183.45 155.356 199.994 166.267 212.174C177.178 224.354 192.911 231.459 192.911 231.459L195.195 225.623C195.195 225.623 162.207 199.994 193.418 194.919L176.529 183.45Z" fill="#24285B"/>
<path d="M203.629 129.604H191.175C178.35 129.604 167.952 140.002 167.952 152.827C167.952 165.653 178.35 176.051 191.175 176.051H203.629C216.455 176.051 226.853 165.653 226.853 152.827C226.853 140.002 216.455 129.604 203.629 129.604Z" fill="#FFD200"/>
<path d="M202.939 152.827H191.348V199.345H202.939V152.827Z" fill="#FFD200"/>
<path opacity="0.08" d="M202.939 152.827H191.348V199.345H202.939V152.827Z" fill="black"/>
<path d="M220.732 193.57H174.194V207.465H220.732V193.57Z" fill="#FFD200"/>
<path d="M195.53 79.5952L195.601 75.1394C195.631 74.1139 195.454 73.0927 195.081 72.1371C194.708 71.1814 194.146 70.3107 193.428 69.5772C193.133 69.3471 192.886 69.061 192.702 68.7352C192.517 68.4095 192.399 68.0505 192.354 67.6789C192.309 67.3073 192.337 66.9304 192.438 66.5699C192.539 66.2094 192.71 65.8723 192.941 65.5781C195.276 62.2387 197.245 64.4007 199.6 61.447C201.954 58.4934 203.731 57.9148 206.481 61.447C209.232 64.9792 211.394 60.8583 212.967 65.1822C214.54 69.5061 213.16 71.6681 207.07 72.0639C201.894 72.3989 203.497 78.2656 198.696 81.3512C198.386 81.5615 198.023 81.6816 197.648 81.6983C197.274 81.7149 196.902 81.6275 196.574 81.4456C196.246 81.2637 195.975 80.9946 195.79 80.6679C195.606 80.3413 195.516 79.97 195.53 79.5952Z" fill="#24285B"/>
<path d="M200.848 207.455H193.459V239.559H200.848V207.455Z" fill="#FFD200"/>
<path opacity="0.08" d="M200.848 207.455H193.459V239.559H200.848V207.455Z" fill="black"/>
<path d="M193.459 239.559L179.168 252.754H216.256L200.838 239.559H193.459Z" fill="#FFD200"/>
<path d="M317.837 188.555H290.432V236.007H317.837V188.555Z" fill="#A5A5A5"/>
<path d="M284.007 182.029H277.582V246.553H284.007V182.029Z" fill="#E6E6E6"/>
<path d="M331.205 182.029H324.78V246.553H331.205V182.029Z" fill="#E6E6E6"/>
<path d="M331.215 236.007H283.378V246.542H331.215V236.007Z" fill="#E6E6E6"/>
<path d="M78.297 182.029H64.7671V246.553H78.297V182.029Z" fill="#E6E6E6"/>
<path opacity="0.42" d="M116.867 228.303H78.2971V236.007H116.867V228.303Z" fill="#A5A5A5"/>
<path d="M136.396 235.702H78.2971V246.542H136.396V235.702Z" fill="#A5A5A5"/>
<path d="M154.615 85.8374H137.086V88.8316H154.615V85.8374Z" fill="#54CE5C"/>
<path d="M134.538 143.053C136.618 143.053 138.304 141.367 138.304 139.287C138.304 137.208 136.618 135.522 134.538 135.522C132.459 135.522 130.773 137.208 130.773 139.287C130.773 141.367 132.459 143.053 134.538 143.053Z" fill="#A5A5A5"/>
<path d="M229.776 78.5193C230.555 78.5193 231.186 77.8877 231.186 77.1085C231.186 76.3293 230.555 75.6976 229.776 75.6976C228.996 75.6976 228.365 76.3293 228.365 77.1085C228.365 77.8877 228.996 78.5193 229.776 78.5193Z" fill="white"/>
<path d="M339.934 55.0525H300.603V82.0921H339.934V55.0525Z" fill="#FFD200"/>
<path d="M314.985 73.8808C314.782 73.8816 314.585 73.8136 314.427 73.6879L308.56 69.0291C308.453 68.9435 308.367 68.8354 308.308 68.7126C308.248 68.5897 308.216 68.4551 308.215 68.3186C308.214 68.1812 308.244 68.0454 308.302 67.9208C308.36 67.7963 308.444 67.686 308.55 67.5979L314.447 62.8579C314.636 62.7146 314.874 62.6505 315.109 62.6794C315.345 62.7082 315.56 62.8276 315.709 63.0124C315.858 63.1971 315.93 63.4326 315.908 63.669C315.887 63.9054 315.774 64.1241 315.594 64.2789L310.58 68.3389L315.584 72.2872C315.679 72.3606 315.758 72.4521 315.817 72.5564C315.876 72.6607 315.914 72.7757 315.928 72.8948C315.942 73.0138 315.932 73.1345 315.899 73.2497C315.866 73.365 315.811 73.4725 315.736 73.5661C315.645 73.6743 315.529 73.7593 315.398 73.814C315.268 73.8687 315.126 73.8916 314.985 73.8808Z" fill="white"/>
<path d="M325.663 73.8808C325.526 73.8816 325.391 73.8509 325.267 73.7911C325.144 73.7312 325.036 73.6438 324.952 73.5357C324.878 73.4421 324.822 73.3346 324.789 73.2193C324.756 73.1041 324.746 72.9834 324.761 72.8644C324.775 72.7453 324.813 72.6303 324.872 72.526C324.931 72.4217 325.01 72.3302 325.105 72.2568L330.098 68.3085L325.095 64.2485C324.989 64.1784 324.899 64.087 324.831 63.9803C324.762 63.8735 324.717 63.7537 324.697 63.6284C324.677 63.5031 324.684 63.3751 324.717 63.2526C324.749 63.13 324.807 63.0156 324.886 62.9166C324.965 62.8175 325.064 62.7361 325.177 62.6774C325.289 62.6187 325.413 62.5841 325.539 62.5757C325.666 62.5673 325.793 62.5854 325.912 62.6287C326.031 62.6721 326.14 62.7397 326.231 62.8275L332.139 67.5675C332.244 67.6556 332.329 67.7658 332.387 67.8904C332.445 68.015 332.474 68.1508 332.474 68.2882C332.472 68.4247 332.44 68.5593 332.381 68.6822C332.321 68.805 332.235 68.9131 332.128 68.9987L326.231 73.6575C326.073 73.7949 325.872 73.8738 325.663 73.8808Z" fill="white"/>
<path d="M317.858 73.8808C317.725 73.8831 317.593 73.8553 317.472 73.7996C317.253 73.698 317.083 73.514 317 73.2877C316.916 73.0614 316.925 72.8112 317.025 72.5917L321.319 63.1826C321.369 63.0733 321.44 62.975 321.528 62.8931C321.616 62.8113 321.719 62.7476 321.832 62.7056C321.944 62.6637 322.064 62.6443 322.184 62.6487C322.304 62.653 322.422 62.681 322.532 62.731C322.641 62.781 322.739 62.852 322.821 62.94C322.903 63.028 322.967 63.1313 323.009 63.2439C323.051 63.3565 323.07 63.4763 323.066 63.5964C323.061 63.7165 323.033 63.8346 322.983 63.9439L318.71 73.3529C318.637 73.5161 318.517 73.6537 318.365 73.7478C318.213 73.8419 318.036 73.8882 317.858 73.8808Z" fill="white"/>
<path opacity="0.58" d="M95.41 216.813C95.41 216.813 86.0619 214.255 84.0217 205.557C84.0217 205.557 98.5159 202.633 98.9219 217.584L95.41 216.813Z" fill="#54CE5C"/>
<path opacity="0.73" d="M96.5063 215.93C96.5063 215.93 89.9697 205.597 95.7248 195.945C95.7248 195.945 106.738 202.938 101.815 215.95L96.5063 215.93Z" fill="#54CE5C"/>
<path d="M98.1912 215.93C98.1912 215.93 101.642 205.029 112.076 202.958C112.076 202.958 114.025 210.063 105.316 215.96L98.1912 215.93Z" fill="#54CE5C"/>
<path d="M91.4109 215.646L93.2988 228.617L105.235 228.668L107.001 215.717L91.4109 215.646Z" fill="#24285B"/>
<path d="M308.773 202.928C310.713 202.928 312.285 201.356 312.285 199.416C312.285 197.476 310.713 195.904 308.773 195.904C306.834 195.904 305.261 197.476 305.261 199.416C305.261 201.356 306.834 202.928 308.773 202.928Z" fill="white"/>
<path opacity="0.18" d="M314.224 207.455H295.111V231.439H314.224V207.455Z" fill="white"/>
</svg>
