<svg width="406" height="306" viewBox="0 0 406 306" fill="none" xmlns="http://www.w3.org/2000/svg">
<path opacity="0.3" d="M111.122 51.9466C75.4553 60.4726 47.0861 81.209 42.0517 120.023C37.809 152.716 42.1836 210.632 101.845 220.924C217.941 240.96 308.672 250.47 344.43 194.747C377.255 143.611 374.759 67.1614 309.727 53.1443C263.738 43.2277 187.552 33.6766 111.122 51.9466Z" fill="#E6E6E6"/>
<path opacity="0.45" d="M203 271.156C281.923 271.156 345.902 264.253 345.902 255.738C345.902 247.223 281.923 240.32 203 240.32C124.077 240.32 60.0981 247.223 60.0981 255.738C60.0981 264.253 124.077 271.156 203 271.156Z" fill="#E6E6E6"/>
<path opacity="0.58" d="M96.2323 217.828C96.2323 217.828 87.4728 215.473 85.5342 207.333C85.5342 207.333 99.0844 204.532 99.531 218.498L96.2323 217.828Z" fill="#54CE5C"/>
<path opacity="0.73" d="M97.2978 216.945C97.2978 216.945 91.1469 207.302 96.4858 198.239C96.4858 198.239 106.829 204.745 102.302 216.945H97.2978Z" fill="#54CE5C"/>
<path d="M98.8813 216.945C98.8813 216.945 102.068 206.724 111.823 204.765C111.823 204.765 113.68 211.383 105.55 216.945H98.8813Z" fill="#54CE5C"/>
<path d="M92.5273 216.752L94.3543 228.881H105.529L107.123 216.752H92.5273Z" fill="#24285B"/>
<path opacity="0.58" d="M96.2323 217.828C96.2323 217.828 87.4728 215.473 85.5342 207.333C85.5342 207.333 99.0844 204.532 99.531 218.498L96.2323 217.828Z" fill="#54CE5C"/>
<path opacity="0.73" d="M97.2978 216.945C97.2978 216.945 91.1469 207.302 96.4858 198.239C96.4858 198.239 106.829 204.745 102.302 216.945H97.2978Z" fill="#54CE5C"/>
<path d="M98.8813 216.945C98.8813 216.945 102.068 206.724 111.823 204.765C111.823 204.765 113.68 211.383 105.55 216.945H98.8813Z" fill="#54CE5C"/>
<path d="M92.5273 216.752L94.3543 228.881H105.529L107.123 216.752H92.5273Z" fill="#24285B"/>
<path d="M77.2414 252.856H127.626V240.777H77.2414V252.856Z" fill="#CCCCCC"/>
<path opacity="0.43" d="M88.2443 241.041H138.629V228.963H88.2443V241.041Z" fill="#E6E6E6"/>
<path d="M295.954 34.854H113.741V252.866H295.954V34.854Z" fill="#E6E6E6"/>
<path opacity="0.12" d="M230.841 43.3699H196.758V48.3434H230.841V43.3699Z" fill="black"/>
<path d="M184.415 51.9466C187.482 51.9466 189.967 49.4609 189.967 46.3946C189.967 43.3283 187.482 40.8425 184.415 40.8425C181.349 40.8425 178.863 43.3283 178.863 46.3946C178.863 49.4609 181.349 51.9466 184.415 51.9466Z" fill="white"/>
<path opacity="0.08" d="M279.196 60.5944H130.499V231.581H279.196V60.5944Z" fill="black"/>
<g opacity="0.12">
<path opacity="0.12" d="M166.125 180.314H145.622V216.275H166.125V180.314Z" fill="black"/>
<path opacity="0.12" d="M199.549 167.159H179.046V216.275H199.549V167.159Z" fill="black"/>
<path opacity="0.12" d="M232.973 146.088H212.47V216.275H232.973V146.088Z" fill="black"/>
<path opacity="0.12" d="M266.387 126.915H245.884V216.275H266.387V126.915Z" fill="black"/>
</g>
<path opacity="0.12" d="M204.847 248.786C208.452 248.786 211.374 245.864 211.374 242.259C211.374 238.655 208.452 235.733 204.847 235.733C201.243 235.733 198.321 238.655 198.321 242.259C198.321 245.864 201.243 248.786 204.847 248.786Z" fill="black"/>
<path opacity="0.08" d="M237.51 180.506C237.51 180.506 211.698 186.292 201.559 204.237C191.419 222.182 233.024 253.15 233.024 253.15L261.799 253.252L268.437 223.177L253.435 201.781L237.51 180.506Z" fill="black"/>
<path d="M290.148 177.36C290.148 177.36 323.866 173.787 322.628 191.631C321.389 209.475 302.45 247.456 302.45 247.456H260.997C260.997 247.456 229.532 199.243 244.858 183.734C260.185 168.225 263.636 181.532 290.148 177.36Z" fill="#54CE5C"/>
<path d="M302.48 253.252L277.268 260.052L254.907 248.694L251.507 242.645H274.05H309.92L302.48 253.252Z" fill="#24285B"/>
<path d="M306.408 196.645C303.251 186.079 309.22 174.538 320.506 182.993C328.241 188.789 337.426 207.262 337.893 224.365C338.99 263.665 290.777 221.381 284.789 198.868L290.726 195.366C290.726 195.366 300.714 214.225 311.615 218.305C319.471 221.269 311.077 212.266 306.408 196.645Z" fill="#54CE5C"/>
<path opacity="0.46" d="M306.408 196.645C303.251 186.079 309.22 174.538 320.506 182.993C328.241 188.789 337.426 207.262 337.893 224.365C338.99 263.665 290.777 221.381 284.789 198.868L290.726 195.366C290.726 195.366 300.714 214.225 311.615 218.305C319.471 221.269 311.077 212.266 306.408 196.645Z" fill="white"/>
<path d="M288.96 177.583C288.726 179.086 288.576 180.601 288.514 182.12C288.443 184.211 287.773 187.307 284.454 187.916C279.379 188.86 278.019 180.811 278.019 180.811C278.019 180.811 274.821 173.28 280.323 172.255C285.306 171.341 289.975 170.671 288.96 177.583Z" fill="#F4A28C"/>
<path opacity="0.08" d="M269.381 188.911C269.381 188.911 272.538 195.528 264.57 209.089C260.013 216.854 274.05 229.805 274.05 229.805L308.987 233.307L302.47 247.446H260.997C260.997 247.446 242.798 217.848 241.398 202.613C239.997 187.378 269.381 188.911 269.381 188.911Z" fill="black"/>
<path d="M278.374 181.156C278.374 181.156 278.079 178.71 275.948 178.822C273.816 178.933 274.659 183.45 278.374 181.156Z" fill="#F4A28C"/>
<path d="M287.732 179.796C287.732 179.796 286.991 177.451 288.97 176.67C290.95 175.888 292.076 180.405 287.732 179.796Z" fill="#F4A28C"/>
<path d="M300.836 240.493L303.759 213.87H259.048L263.504 241.853L262.865 245.446L301.313 245.751L300.836 240.493Z" fill="#FFD200"/>
<path d="M282.84 253.252C282.84 253.252 274.355 256.215 277.268 260.052C280.181 263.889 284.789 257.515 284.789 257.515L282.84 253.252Z" fill="#54CE5C"/>
<path opacity="0.08" d="M259.048 213.9L267.96 225.573C273.134 232.402 280.122 237.642 288.128 240.696L301.323 245.771L265.869 245.487H262.875L263.514 241.894L259.048 213.9Z" fill="black"/>
<path d="M289.072 177.279C289.523 177.463 290.013 177.536 290.498 177.492C290.984 177.448 291.452 177.288 291.863 177.025C292.259 176.597 292.476 176.034 292.472 175.452C292.756 172.64 292.168 168.611 290.371 166.317C288.575 164.023 284.545 164.206 281.987 164.591C280.667 164.737 279.387 165.13 278.211 165.748C276.871 166.614 275.813 167.853 275.166 169.311C273.542 172.742 273.309 178.243 277.613 179.461C283.855 181.217 287.093 174.386 287.093 174.386C287.489 175.336 288.019 176.225 288.666 177.025C288.787 177.131 288.924 177.216 289.072 177.279Z" fill="#24285B"/>
<path d="M282.576 251.77C282.576 251.77 316.873 234.261 319.796 243.568C322.719 252.876 299.08 258.296 283.825 258.854L282.576 251.77Z" fill="#24285B"/>
<path d="M280.962 232.038C283.076 232.038 284.789 230.325 284.789 228.212C284.789 226.098 283.076 224.385 280.962 224.385C278.849 224.385 277.136 226.098 277.136 228.212C277.136 230.325 278.849 232.038 280.962 232.038Z" fill="white"/>
<path d="M274.243 253.14C274.243 253.14 246.899 226.039 241.286 234.027C235.673 242.016 256.511 254.327 270.903 259.514L274.243 253.14Z" fill="#24285B"/>
<path d="M273.177 255.18C273.177 255.18 281.297 262.397 276.587 264.528C271.878 266.66 270.903 259.514 270.903 259.514L273.177 255.18Z" fill="#54CE5C"/>
<path d="M269.381 188.911C269.685 185.866 268.772 182.824 266.842 180.449C264.912 178.074 262.121 176.559 259.079 176.233C252.897 175.574 244.767 175.98 237.54 180.506C223.523 189.296 208.014 196.31 211.84 212.235C215.667 228.161 243.488 234.85 243.488 234.85L247.193 228.76C247.193 228.76 222.67 220.477 227.136 207.526C231.156 195.884 266.742 215.392 269.381 188.911Z" fill="#54CE5C"/>
<path opacity="0.46" d="M269.381 188.911C269.685 185.866 268.772 182.824 266.842 180.449C264.912 178.074 262.121 176.559 259.079 176.233C252.897 175.574 244.767 175.98 237.54 180.506C223.523 189.296 208.014 196.31 211.84 212.235C215.667 228.161 243.488 234.85 243.488 234.85L247.193 228.76C247.193 228.76 222.67 220.477 227.136 207.526C231.156 195.884 266.742 215.392 269.381 188.911Z" fill="white"/>
<path d="M246.584 229.805C246.584 229.805 254.318 235.042 251.507 236.484C248.695 237.925 243.955 234.088 243.955 234.088L246.584 229.805Z" fill="#F4A28C"/>
<path d="M285.753 181.806C285.611 181.056 285.261 180.362 284.742 179.802C284.224 179.242 283.558 178.84 282.822 178.641C282.085 178.442 281.307 178.455 280.578 178.678C279.848 178.901 279.196 179.325 278.696 179.901C278.196 180.477 277.869 181.183 277.752 181.937C277.635 182.691 277.732 183.462 278.033 184.163C278.334 184.864 278.827 185.466 279.454 185.9C280.082 186.334 280.819 186.582 281.581 186.617L283.347 195.863L285.174 195.518L283.408 186.272C284.245 185.901 284.932 185.258 285.358 184.447C285.784 183.636 285.923 182.705 285.753 181.806ZM282.18 184.851C281.738 184.935 281.281 184.887 280.867 184.711C280.453 184.536 280.1 184.242 279.853 183.866C279.606 183.49 279.476 183.05 279.48 182.6C279.483 182.15 279.62 181.712 279.873 181.34C280.125 180.968 280.483 180.679 280.9 180.51C281.316 180.341 281.774 180.3 282.214 180.391C282.655 180.482 283.058 180.702 283.373 181.022C283.689 181.343 283.902 181.75 283.987 182.191C284.082 182.777 283.946 183.377 283.607 183.864C283.267 184.351 282.752 184.686 282.17 184.8L282.18 184.851Z" fill="#24285B"/>
<path d="M289.681 196.006C289.681 196.006 286.91 189.205 283.114 189.763C279.318 190.322 285.215 198.675 285.215 198.675L289.681 196.006Z" fill="#F4A28C"/>
<path opacity="0.46" d="M193.794 134.953H164.694V139.856H193.794V134.953Z" fill="white"/>
<path opacity="0.46" d="M193.794 147.864H164.694V152.767H193.794V147.864Z" fill="white"/>
<path d="M155.63 134.953H147.043V139.856H155.63V134.953Z" fill="#54CE5C"/>
<path d="M155.63 147.864H147.043V152.767H155.63V147.864Z" fill="#FFD200"/>
<path d="M230.182 96.4137C230.195 102.919 227.709 109.182 223.237 113.907C218.766 118.632 212.65 121.459 206.153 121.804C199.657 122.15 193.276 119.987 188.329 115.762C183.381 111.537 180.246 105.574 179.569 99.1034C178.893 92.633 180.727 86.15 184.694 80.9935C188.661 75.837 194.456 72.401 200.884 71.3953C207.311 70.3895 213.879 71.8908 219.232 75.589C224.584 79.2873 228.311 84.9 229.644 91.2677C229.776 91.9579 229.887 92.6481 229.989 93.2977C230.116 94.3315 230.18 95.3721 230.182 96.4137Z" fill="#54CE5C"/>
<path d="M204.847 71.0895V96.4645L229.654 91.3083C229.654 91.3083 226.193 70.9271 204.847 71.0895Z" fill="#FFD200"/>
<path opacity="0.46" d="M230.182 96.4138C230.162 100.988 228.905 105.472 226.546 109.391C224.186 113.31 220.812 116.518 216.778 118.677C212.745 120.835 208.203 121.862 203.634 121.651C199.064 121.439 194.637 119.996 190.82 117.475L204.898 96.4138L229.694 91.2576C229.826 91.9478 229.938 92.638 230.039 93.2876C230.15 94.3258 230.197 95.3698 230.182 96.4138Z" fill="white"/>
<path opacity="0.08" d="M168.307 72.8252H113.741V120.023H168.307V72.8252Z" fill="black"/>
<path d="M163.395 67.5675H105.834V114.765H163.395V67.5675Z" fill="#24285B"/>
<path d="M135.817 75.4946C136.67 75.4946 136.934 75.789 136.934 76.6416V78.4584C140.344 78.9355 142.303 80.6407 143.754 83.6045C144.201 84.4977 144.018 84.9849 143.014 85.4213L141.197 86.2435C140.344 86.6495 139.938 86.4668 139.451 85.5736C139.072 84.6522 138.406 83.8772 137.553 83.3636C136.699 82.8499 135.702 82.6247 134.711 82.7214C131.554 82.7214 130.113 83.6451 130.113 85.7664C130.182 86.4143 130.476 87.0176 130.943 87.4717C131.41 87.9259 132.021 88.2024 132.671 88.2532C133.55 88.4487 134.442 88.5843 135.34 88.6592C137.024 88.7611 138.685 89.1029 140.273 89.6742C141.066 89.9346 141.806 90.337 142.455 90.8617C143.113 91.5535 143.625 92.3695 143.963 93.2618C144.301 94.1541 144.458 95.1049 144.424 96.0585C144.424 100.119 141.714 102.839 136.934 103.539V105.468C136.934 106.32 136.67 106.625 135.817 106.625H133.787C132.935 106.625 132.64 106.32 132.64 105.468V103.58C130.98 103.467 129.39 102.865 128.071 101.85C126.753 100.835 125.764 99.4517 125.231 97.8754C125.149 97.7097 125.107 97.5275 125.108 97.343C125.109 97.1584 125.152 96.9765 125.234 96.8114C125.317 96.6464 125.436 96.5026 125.584 96.3914C125.731 96.2801 125.902 96.2044 126.083 96.1702L127.9 95.5003C128.824 95.1653 129.23 95.3886 129.636 96.3123C130.461 98.3896 132.129 99.4283 134.64 99.4283C138.05 99.4283 139.715 98.3524 139.715 96.1702C139.745 95.6633 139.604 95.1611 139.315 94.7436C139.026 94.326 138.606 94.0171 138.121 93.8661C136.954 93.436 135.729 93.1828 134.488 93.115C132.785 93.0078 131.109 92.6451 129.514 92.0391C128.729 91.7609 128.001 91.345 127.362 90.811C126.69 90.1526 126.162 89.3613 125.812 88.4875C125.463 87.6136 125.299 86.6765 125.332 85.736C125.332 81.7369 127.86 79.0674 132.6 78.4381V76.6416C132.6 75.789 132.894 75.4946 133.747 75.4946H135.817Z" fill="white"/>
<path opacity="0.46" d="M266.397 74.7029H240.667V79.5952H266.397V74.7029Z" fill="white"/>
<path opacity="0.46" d="M266.397 85.401H240.667V90.2933H266.397V85.401Z" fill="white"/>
<path opacity="0.46" d="M266.397 96.0991H240.667V100.991H266.397V96.0991Z" fill="white"/>
<path opacity="0.46" d="M266.397 106.797H251.619V111.69H266.397V106.797Z" fill="white"/>
</svg>
