<svg width="406" height="306" viewBox="0 0 406 306" fill="none" xmlns="http://www.w3.org/2000/svg">
<path d="M331.144 42.03H108.696V217.361H331.144V42.03Z" fill="#E6E6E6"/>
<path opacity="0.08" d="M131.808 154.441C131.808 154.441 147.368 166.439 142.293 174.305C137.218 182.171 134.173 174.396 134.173 187.591C134.173 200.786 133.158 217.351 133.158 217.351H114.198L118.562 154.797L131.808 154.441Z" fill="black"/>
<path opacity="0.45" d="M122.642 273.318C164.124 273.318 197.752 267.324 197.752 259.93C197.752 252.536 164.124 246.542 122.642 246.542C81.1601 246.542 47.5322 252.536 47.5322 259.93C47.5322 267.324 81.1601 273.318 122.642 273.318Z" fill="#E6E6E6"/>
<path d="M97.4093 137.196L99.9265 144.758L93.9482 148.554L91.7964 135.451L97.4093 137.196Z" fill="#F4A28C"/>
<path d="M89.736 128.153C90.0488 127.434 90.5361 126.804 91.1539 126.321C91.7716 125.838 92.5002 125.517 93.2734 125.387C94.0467 125.257 94.8402 125.322 95.5819 125.577C96.3237 125.831 96.9902 126.266 97.521 126.843C100.069 129.564 103.134 133.888 99.6627 136.232C94.3542 139.835 89.5127 133.106 89.5127 133.106C89.096 131.469 89.1737 129.746 89.736 128.153Z" fill="#F4A28C"/>
<path d="M93.6235 132.781C93.6235 132.781 92.2634 131.644 91.6443 133.268C91.0251 134.892 93.4307 135.664 94.1513 134.842C94.872 134.02 93.6235 132.781 93.6235 132.781Z" fill="#F4A28C"/>
<path d="M88.8634 148.625C88.8634 148.625 67.457 161.587 64.6455 192.006C64.3968 194.533 65.0677 197.064 66.5351 199.135C68.0024 201.207 70.1678 202.68 72.6335 203.283L97.7243 209.373L88.8634 148.625Z" fill="#54CE5C"/>
<path opacity="0.2" d="M88.8634 148.625C88.8634 148.625 67.457 161.587 64.6455 192.006C64.3968 194.533 65.0677 197.064 66.5351 199.135C68.0024 201.207 70.1678 202.68 72.6335 203.283L97.7243 209.373L88.8634 148.625Z" fill="white"/>
<path d="M139.147 160.41C135.817 152.117 126.967 142.617 106.24 134.974L104.809 139.561L127.89 167.109C132.752 172.874 141.958 167.383 139.147 160.41Z" fill="#54CE5C"/>
<path d="M97.8447 185.549L64.9561 200.662L74.8394 222.169L107.728 207.056L97.8447 185.549Z" fill="#FFD200"/>
<path d="M94.3951 130.822C94.3951 130.822 97.227 138.942 92.2941 138.404C87.3612 137.866 90.0712 134.426 87.6251 130.822C85.1789 127.219 86.468 124.793 90.2032 121.637C91.9084 120.195 93.0553 119.515 93.7455 118.754C94.0336 118.411 94.4045 118.146 94.8231 117.986C95.2416 117.825 95.6942 117.774 96.138 117.837C96.5818 117.9 97.0023 118.075 97.3598 118.346C97.7172 118.616 97.9999 118.973 98.1811 119.383C99.4701 122.479 99.4701 126.61 94.3951 130.822Z" fill="#24285B"/>
<path d="M83.9103 155.03C84.9293 152.776 86.4211 150.767 88.2844 149.141C90.1477 147.514 92.3391 146.306 94.7099 145.601C103.845 142.85 121.242 137.085 126.378 145.601C133.412 157.324 122.592 203.334 122.592 203.334L91.8374 205.719C91.8374 205.719 74.9174 175.208 83.9103 155.03Z" fill="#54CE5C"/>
<path d="M122.592 203.334L118.542 256.205H112.147L106.433 215.128L92.2939 205.719L122.592 203.334Z" fill="#24285B"/>
<path d="M92.294 205.719L83.4736 256.205H90.3249L105.134 214.265L92.294 205.719Z" fill="#24285B"/>
<path opacity="0.08" d="M97.3691 144.758C97.3691 144.758 82.9866 191.093 124.531 194.168L122.592 203.303L91.8374 205.689C84.7678 193.229 81.1813 179.097 81.4539 164.774C81.4539 164.774 81.7178 152.959 90.0408 147.732C92.2445 146.231 94.7427 145.217 97.3691 144.758Z" fill="black"/>
<path d="M84.7221 256.205L80.4591 259.342C80.3007 259.459 80.1834 259.623 80.1238 259.81C80.0643 259.998 80.0656 260.199 80.1275 260.386C80.1894 260.573 80.3088 260.736 80.4686 260.851C80.6284 260.966 80.8204 261.027 81.0173 261.026H88.1223C88.3709 261.026 88.6095 260.928 88.7862 260.754C88.963 260.579 89.0636 260.341 89.0663 260.093V256.205H84.7221Z" fill="#54CE5C"/>
<path d="M118.359 256.205L122.419 259.342C122.573 259.463 122.686 259.63 122.741 259.819C122.796 260.007 122.79 260.208 122.725 260.394C122.661 260.579 122.54 260.74 122.379 260.853C122.219 260.967 122.027 261.027 121.83 261.026H116.755C116.037 261.026 115.347 260.741 114.839 260.233C114.331 259.724 114.045 259.035 114.045 258.316V256.205H118.359Z" fill="#54CE5C"/>
<path d="M219.413 130.223L176.103 185.48" stroke="#A5A5A5" stroke-width="1.015" stroke-miterlimit="10"/>
<path d="M109.072 153.619C112.168 160.491 117.547 169.088 126.093 173.056C127.877 173.94 129.891 174.247 131.856 173.936C133.822 173.624 135.643 172.71 137.066 171.319C138.489 169.928 139.445 168.129 139.802 166.171C140.158 164.213 139.897 162.192 139.055 160.389C138.404 158.954 137.601 157.593 136.659 156.329C132.112 150.138 125.647 144.992 119.476 142.606C117.96 142.019 116.303 141.897 114.718 142.255C113.132 142.613 111.689 143.435 110.573 144.617C109.457 145.798 108.718 147.286 108.45 148.889C108.183 150.492 108.399 152.139 109.072 153.619Z" fill="#54CE5C"/>
<path opacity="0.2" d="M109.072 153.619C112.168 160.491 117.547 169.088 126.093 173.056C127.877 173.94 129.891 174.247 131.856 173.936C133.822 173.624 135.643 172.71 137.066 171.319C138.489 169.928 139.445 168.129 139.802 166.171C140.158 164.213 139.897 162.192 139.055 160.389C138.404 158.954 137.601 157.593 136.659 156.329C132.112 150.138 125.647 144.992 119.476 142.606C117.96 142.019 116.303 141.897 114.718 142.255C113.132 142.613 111.689 143.435 110.573 144.617C109.457 145.798 108.718 147.286 108.45 148.889C108.183 150.492 108.399 152.139 109.072 153.619Z" fill="white"/>
<path opacity="0.08" d="M331.682 147.184H303.374V109.061H331.144" fill="black"/>
<path d="M105.946 135.907C105.946 135.907 101.074 132.71 99.6628 136.232C98.2519 139.754 104.809 139.561 104.809 139.561L105.946 135.907Z" fill="#F4A28C"/>
<path d="M150.047 93.4499L219.412 133.796L265.757 76.9054" stroke="#A5A5A5" stroke-width="1.015" stroke-miterlimit="10"/>
<path d="M326.099 138.404H297.791V100.281H340.543V125.768" fill="#FFD200"/>
<path d="M225.502 135.968L286.565 173.412" stroke="#A5A5A5" stroke-width="1.015" stroke-miterlimit="10"/>
<path opacity="0.08" d="M256.795 113.912H203V162.886H256.795V113.912Z" fill="black"/>
<path d="M147.672 100.728V130.223" stroke="#A5A5A5" stroke-width="1.015" stroke-miterlimit="10"/>
<path d="M217.748 185.48H188.252" stroke="#A5A5A5" stroke-width="1.015" stroke-miterlimit="10"/>
<path opacity="0.34" d="M324.749 90.2426H313.584V110.543H324.749V90.2426Z" fill="white"/>
<path d="M248.34 105.742H194.545V154.715H248.34V105.742Z" fill="#54CE5C"/>
<path d="M166.582 73.5356H128.753V107.325H166.582V73.5356Z" fill="#C9C9C9"/>
<path opacity="0.34" d="M326.099 138.404V125.768H340.543L326.099 138.404Z" fill="white"/>
<path d="M311.27 152.249H272.02V186.83H311.27V152.249Z" fill="#C9C9C9"/>
<path d="M303.911 65.0807H256.034V88.7099H303.911V65.0807Z" fill="white"/>
<path d="M195.56 170.935H161.05V200.035H195.56V170.935Z" fill="white"/>
<path d="M238.779 177.918H207.395V193.042H238.779V177.918Z" fill="#C9C9C9"/>
<path d="M244.615 69.3438H213.231V84.4673H244.615V69.3438Z" fill="#C9C9C9"/>
<path d="M166.014 117.851H129.321V138.475H166.014V117.851Z" fill="#C9C9C9"/>
<path d="M268.721 82.6605C271.9 82.6605 274.476 80.0839 274.476 76.9054C274.476 73.727 271.9 71.1504 268.721 71.1504C265.543 71.1504 262.966 73.727 262.966 76.9054C262.966 80.0839 265.543 82.6605 268.721 82.6605Z" fill="#C9C9C9"/>
<path d="M295.964 71.3635H279.044V75.0886H295.964V71.3635Z" fill="#C9C9C9"/>
<path opacity="0.22" d="M295.964 77.6464H279.044V81.3714H295.964V77.6464Z" fill="#C9C9C9"/>
<path opacity="0.22" d="M186.76 178.974H169.84V182.699H186.76V178.974Z" fill="#24285B"/>
<path opacity="0.22" d="M186.76 187.855H169.84V191.58H186.76V187.855Z" fill="#24285B"/>
<path opacity="0.63" d="M132.945 99.4283L139.705 88.984L147.672 98.3017L155.285 84.924L162.4 99.6313V103.336H132.945V99.4283Z" fill="white"/>
<path d="M147.398 87.1164C149.31 87.1164 150.859 85.5668 150.859 83.6552C150.859 81.7437 149.31 80.1941 147.398 80.1941C145.487 80.1941 143.937 81.7437 143.937 83.6552C143.937 85.5668 145.487 87.1164 147.398 87.1164Z" fill="white"/>
<path opacity="0.63" d="M276.912 177.187L283.682 166.733L291.64 176.051L299.252 162.683L306.378 177.39V181.095H276.912V177.187Z" fill="white"/>
<path d="M291.366 164.876C293.277 164.876 294.827 163.326 294.827 161.414C294.827 159.503 293.277 157.953 291.366 157.953C289.454 157.953 287.905 159.503 287.905 161.414C287.905 163.326 289.454 164.876 291.366 164.876Z" fill="white"/>
<path opacity="0.58" d="M153.356 247.172C153.356 247.172 145.642 245.142 143.937 237.935C143.937 237.935 155.863 235.469 156.259 247.791L153.356 247.172Z" fill="#54CE5C"/>
<path opacity="0.73" d="M154.28 246.38C154.28 246.38 148.86 237.895 153.559 229.917C153.559 229.917 162.694 235.641 158.634 246.38H154.28Z" fill="#54CE5C"/>
<path d="M155.681 246.38C155.681 246.38 158.492 237.377 167.079 235.641C167.079 235.641 168.723 241.467 161.558 246.38H155.681Z" fill="#54CE5C"/>
<path d="M150.098 246.218L151.702 256.905H161.537L162.948 246.218H150.098Z" fill="#24285B"/>
<path d="M126.053 57.8437C127.97 57.8437 129.524 56.2896 129.524 54.3724C129.524 52.4553 127.97 50.9011 126.053 50.9011C124.136 50.9011 122.582 52.4553 122.582 54.3724C122.582 56.2896 124.136 57.8437 126.053 57.8437Z" fill="#24285B"/>
<path d="M136.376 57.8437C138.293 57.8437 139.847 56.2896 139.847 54.3724C139.847 52.4553 138.293 50.9011 136.376 50.9011C134.458 50.9011 132.904 52.4553 132.904 54.3724C132.904 56.2896 134.458 57.8437 136.376 57.8437Z" fill="#54CE5C"/>
<path d="M146.099 57.8437C148.016 57.8437 149.571 56.2896 149.571 54.3724C149.571 52.4553 148.016 50.9011 146.099 50.9011C144.182 50.9011 142.628 52.4553 142.628 54.3724C142.628 56.2896 144.182 57.8437 146.099 57.8437Z" fill="#FFD200"/>
<path d="M208.917 129.34L219.067 139.653L233.958 116.663" stroke="white" stroke-width="6.09" stroke-miterlimit="10"/>
</svg>
