<svg width="406" height="306" viewBox="0 0 406 306" fill="none" xmlns="http://www.w3.org/2000/svg">
<path d="M75.7695 209.089C75.7695 209.089 76.5511 220.569 81.9915 217.584C87.4319 214.6 80.6212 209.089 80.6212 209.089H75.7695Z" fill="#F4A28C"/>
<path d="M305.393 48.6885H101.5V206.815H305.393V48.6885Z" fill="#E6E6E6"/>
<path opacity="0.39" d="M158.746 114.227H118.318V128.853H158.746V114.227Z" fill="#C9C9C9"/>
<path opacity="0.2" d="M229.329 144.464H186.902V191.976H229.329V144.464Z" fill="#C9C9C9"/>
<path opacity="0.2" d="M159.101 144.464H116.674V191.976H159.101V144.464Z" fill="#C9C9C9"/>
<path opacity="0.2" d="M297.222 114.887H249.599V191.976H297.222V114.887Z" fill="#C9C9C9"/>
<path opacity="0.08" d="M102.069 104.107C102.069 104.107 110.016 102.555 111.539 113.242C113.061 123.93 108.91 132.233 121.343 134.141C133.777 136.05 148.302 127.036 155.559 146.403C162.816 165.769 163.151 206.795 163.151 206.795H128.641L97.1763 125.93L102.069 104.107Z" fill="black"/>
<path opacity="0.45" d="M105.824 269.136C141.874 269.136 171.099 265.274 171.099 260.509C171.099 255.744 141.874 251.881 105.824 251.881C69.7738 251.881 40.5493 255.744 40.5493 260.509C40.5493 265.274 69.7738 269.136 105.824 269.136Z" fill="#E6E6E6"/>
<path opacity="0.45" d="M304.784 268.497C341.474 268.497 371.216 264.634 371.216 259.869C371.216 255.104 341.474 251.242 304.784 251.242C268.095 251.242 238.353 255.104 238.353 259.869C238.353 264.634 268.095 268.497 304.784 268.497Z" fill="#E6E6E6"/>
<path opacity="0.58" d="M59.611 250.237C59.611 250.237 50.9733 247.872 49.0854 239.833C49.0854 239.833 62.4834 237.123 62.859 250.948L59.611 250.237Z" fill="#54CE5C"/>
<path opacity="0.73" d="M60.6767 249.425C60.6767 249.425 54.5867 239.884 59.9459 230.952C59.9459 230.952 70.0959 237.418 65.6096 249.445L60.6767 249.425Z" fill="#54CE5C"/>
<path d="M62.2295 249.425C62.2295 249.425 65.4166 239.275 75.1098 237.387C75.1098 237.387 76.9165 243.934 68.8676 249.415L62.2295 249.425Z" fill="#54CE5C"/>
<path d="M55.957 249.161L57.713 261.148L68.746 261.189L70.37 249.212L55.957 249.161Z" fill="#24285B"/>
<path d="M92.5576 134.497C92.5576 134.497 53.9876 161.902 74.8662 209.089H80.6212C80.6212 209.089 77.5762 174.853 92.5576 158.643C107.539 142.434 92.5576 134.497 92.5576 134.497Z" fill="#54CE5C"/>
<path opacity="0.2" d="M92.5576 134.497C92.5576 134.497 53.9876 161.902 74.8662 209.089H80.6212C80.6212 209.089 77.5762 174.853 92.5576 158.643C107.539 142.434 92.5576 134.497 92.5576 134.497Z" fill="white"/>
<path d="M103.083 119.698L106.362 129.543L98.5665 134.497L95.7651 117.434L103.083 119.698Z" fill="#F4A28C"/>
<path d="M93.4817 111.476C93.8032 110.741 94.3029 110.098 94.9357 109.605C95.5684 109.112 96.3142 108.785 97.1054 108.653C97.8966 108.521 98.7082 108.588 99.4668 108.849C100.225 109.11 100.907 109.556 101.449 110.147C104.058 112.928 107.205 117.353 103.652 119.759C98.2116 123.453 93.2178 116.562 93.2178 116.562C92.8052 114.877 92.897 113.109 93.4817 111.476Z" fill="#F4A28C"/>
<path d="M98.1503 113.953C98.1503 113.953 96.3741 112.471 95.5722 114.572C94.7704 116.673 97.9067 117.698 98.8405 116.602C99.7743 115.506 98.1503 113.953 98.1503 113.953Z" fill="#F4A28C"/>
<path d="M102.379 179.987L64.3853 189.877L71.2784 216.359L109.273 206.469L102.379 179.987Z" fill="#FFD200"/>
<path opacity="0.08" d="M83.9404 184.79L90.0304 202.725L89.7056 211.565L98.4549 209.343L102.342 193.407L91.7458 182.75L83.9404 184.79Z" fill="black"/>
<path d="M89.4722 139.328C90.6482 136.718 92.3731 134.392 94.5293 132.509C96.6855 130.626 99.2223 129.23 101.967 128.417C112.553 125.24 132.041 128.721 137.989 138.628C146.109 152.178 134.213 195.244 134.213 195.244L98.6884 198.005C98.6884 198.005 79.0684 162.714 89.4722 139.328Z" fill="#54CE5C"/>
<path d="M134.214 195.244L129.534 256.408H122.135L115.527 208.886L99.1758 198.005L134.214 195.244Z" fill="#24285B"/>
<path d="M99.1757 198.005L88.9648 256.408H96.9021L114.025 207.891L99.1757 198.005Z" fill="#24285B"/>
<path d="M229.319 116.45H211.354V137.745H229.319V116.45Z" fill="#C9C9C9"/>
<path opacity="0.08" d="M105.042 127.493C105.042 127.493 88.4066 181.085 136.507 184.638L134.264 195.244L98.7393 198.005C98.7393 198.005 86.1025 178.375 86.6303 150.676C86.6303 150.676 86.9348 137.004 96.557 130.964C99.1044 129.213 101.998 128.029 105.042 127.493Z" fill="black"/>
<path d="M90.822 256.286L86.0515 259.808C85.8497 259.925 85.6941 260.107 85.6109 260.325C85.5277 260.543 85.5219 260.782 85.5945 261.004C85.6671 261.225 85.8137 261.415 86.0097 261.541C86.2057 261.667 86.4391 261.722 86.6707 261.696H94.679C94.9482 261.696 95.2064 261.589 95.3968 261.399C95.5871 261.209 95.694 260.951 95.694 260.681V256.317L90.822 256.286Z" fill="#54CE5C"/>
<path d="M128.61 256.286L133.107 259.798C133.324 259.91 133.493 260.097 133.584 260.324C133.674 260.551 133.68 260.803 133.6 261.033C133.519 261.264 133.359 261.458 133.147 261.58C132.935 261.702 132.687 261.743 132.447 261.696H126.753C125.945 261.696 125.171 261.376 124.6 260.804C124.029 260.233 123.708 259.459 123.708 258.651V256.276L128.61 256.286Z" fill="#54CE5C"/>
<path d="M93.6844 118.673C93.6844 118.673 95.42 121.819 98.2924 120.845C101.165 119.87 99.0943 113.08 99.0943 113.08C99.0943 113.08 102.566 108.076 102.068 104.107C101.987 103.637 101.758 103.205 101.413 102.874C101.069 102.544 100.628 102.332 100.154 102.271C99.6809 102.21 99.2003 102.302 98.783 102.534C98.3657 102.766 98.0337 103.125 97.8357 103.559C97.5039 104.159 97.0212 104.662 96.4356 105.018C95.8499 105.374 95.1815 105.571 94.4963 105.589C89.6142 106.158 85.1279 113.872 93.6844 118.673Z" fill="#24285B"/>
<path d="M118.552 143.368C117.724 141.586 117.484 139.587 117.867 137.66C118.25 135.733 119.237 133.978 120.683 132.649C122.13 131.32 123.962 130.485 125.915 130.266C127.867 130.047 129.839 130.455 131.544 131.431C137.35 134.71 143.196 140.516 145.48 150.767C150.667 173.96 152.088 202.075 152.088 202.075L146.16 202.735C146.16 202.735 139.603 173.838 128.408 158.075C125.698 154.35 120.856 148.433 118.552 143.368Z" fill="#54CE5C"/>
<path opacity="0.2" d="M118.552 143.368C117.724 141.586 117.484 139.587 117.867 137.66C118.25 135.733 119.237 133.978 120.683 132.649C122.13 131.32 123.962 130.485 125.915 130.266C127.867 130.047 129.839 130.455 131.544 131.431C137.35 134.71 143.196 140.516 145.48 150.767C150.667 173.96 152.088 202.075 152.088 202.075L146.16 202.735C146.16 202.735 139.603 173.838 128.408 158.075C125.698 154.35 120.856 148.433 118.552 143.368Z" fill="white"/>
<path d="M147.317 202.593C147.317 202.593 144.272 211.078 148.119 211.545C153.194 212.144 152.088 202.075 152.088 202.075L147.317 202.593Z" fill="#F4A28C"/>
<path opacity="0.08" d="M307.636 201.07C307.636 201.07 309.494 113.78 303.992 105.823C303.992 105.823 299.222 104.463 297.517 111.74C295.811 119.018 294.878 121.099 298.43 122.905C301.983 124.712 300.115 134.72 293.649 134.476C287.184 134.233 278.962 132.243 275.796 137.724C272.629 143.205 270.964 178.832 257.749 170.143C244.534 161.455 244.808 138.069 244.808 138.069L221.199 137.775V156.603L239.57 156.238C239.57 156.238 241.935 188.271 267.767 195.427C269.051 195.768 270.253 196.367 271.299 197.187C272.344 198.007 273.213 199.031 273.85 200.196C274.488 201.362 274.883 202.645 275.009 203.968C275.136 205.291 274.993 206.626 274.588 207.891" fill="black"/>
<path d="M302.825 130.843C302.825 130.843 287.803 128.813 284.788 141.388C281.774 153.964 281.348 171.321 269.279 174.802C257.211 178.284 250.542 154.147 250.542 154.147C250.542 154.147 247.741 147.377 244.726 146.453C241.712 145.53 239.55 152.208 244.726 156.299C244.726 156.299 249.081 187.104 272.213 186.028C295.344 184.952 302.825 153.193 302.825 130.843Z" fill="#F4A28C"/>
<path opacity="0.08" d="M302.825 130.843C302.825 130.843 287.803 128.813 284.788 141.388C281.774 153.964 281.348 171.321 269.279 174.802C257.211 178.284 250.542 154.147 250.542 154.147C250.542 154.147 247.741 147.377 244.726 146.453C241.712 145.53 239.55 152.208 244.726 156.299C244.726 156.299 249.081 187.104 272.213 186.028C295.344 184.952 302.825 153.193 302.825 130.843Z" fill="black"/>
<path d="M302.825 130.843C302.825 130.843 286.707 127.655 284.444 140.688C283.21 148.16 281.112 155.463 278.191 162.45L290.514 166.439L302.825 130.843Z" fill="#54CE5C"/>
<path opacity="0.46" d="M302.825 130.843C302.825 130.843 286.707 127.655 284.444 140.688C283.21 148.16 281.112 155.463 278.191 162.45L290.514 166.439L302.825 130.843Z" fill="white"/>
<path d="M303.485 109.01C302.197 111.752 301.283 114.653 300.765 117.637C300.722 117.998 300.752 118.364 300.853 118.714C300.953 119.063 301.122 119.389 301.35 119.672C301.578 119.956 301.859 120.191 302.179 120.364C302.498 120.538 302.849 120.646 303.211 120.682C304.359 120.863 305.535 120.712 306.599 120.246C307.664 119.78 308.573 119.019 309.22 118.054L312.397 114.156C312.952 113.31 313.23 112.313 313.194 111.302C313.157 110.291 312.808 109.316 312.194 108.513C310.113 105.295 304.794 105.945 303.485 109.01Z" fill="#F4A28C"/>
<path d="M310.458 115.009L311.595 130.843H302.825L305.454 119.606L310.458 115.009Z" fill="#F4A28C"/>
<path d="M302.074 112.725L300.166 114.004C300.055 114.074 299.963 114.172 299.9 114.287C299.836 114.402 299.803 114.532 299.803 114.663C299.803 114.795 299.836 114.925 299.9 115.04C299.963 115.155 300.055 115.253 300.166 115.323L301.78 116.338L302.074 112.725Z" fill="#F4A28C"/>
<path opacity="0.31" d="M305.373 119.931C306.434 119.743 307.423 119.269 308.235 118.561C308.235 118.561 308.803 121.992 304.622 123.149L305.373 119.931Z" fill="#CE8172"/>
<path d="M308.022 114.795C308.022 114.795 308.793 112.847 310.214 113.547C311.635 114.247 310.549 117.069 308.438 116.592L308.022 114.795Z" fill="#F4A28C"/>
<path d="M286.981 221.015L279.562 254.733H283.875L298.309 221.015H286.981Z" fill="#F4A28C"/>
<path d="M311.118 216.925L319.025 254.733H323.369L322.709 216.651L311.118 216.925Z" fill="#F4A28C"/>
<path d="M279.562 254.733C279.562 254.733 277.166 257.778 274.101 257.616C271.036 257.454 270.589 261.798 275.522 261.351C277.053 261.218 278.571 260.957 280.059 260.57C281.435 260.254 282.869 260.303 284.22 260.712C284.483 260.776 284.759 260.757 285.01 260.657C285.261 260.557 285.475 260.381 285.621 260.154C287.022 258.509 283.591 254.733 283.591 254.733H279.562Z" fill="#54CE5C"/>
<path d="M323.044 254.733C323.044 254.733 325.44 257.778 328.505 257.616C331.57 257.454 332.017 261.798 327.094 261.351C325.559 261.217 324.038 260.956 322.547 260.57C321.174 260.256 319.744 260.305 318.395 260.712C318.133 260.776 317.857 260.757 317.606 260.657C317.355 260.557 317.141 260.381 316.995 260.154C315.594 258.509 319.025 254.733 319.025 254.733H323.044Z" fill="#54CE5C"/>
<path d="M302.825 130.843H311.605C311.605 130.843 312.204 130.843 313.239 130.843C332.372 131.452 343.486 152.706 333.326 168.925C327.672 177.949 320.933 190.108 320.476 197.345L286.372 195.63C286.372 195.63 288.96 173.513 282.637 160.876C282.637 160.897 271.005 141.003 302.825 130.843Z" fill="#54CE5C"/>
<path opacity="0.08" d="M318.061 142.424C318.061 142.424 313.818 151.193 312.813 166.956C311.808 182.719 287.875 164.104 287.875 164.104L286.778 190.139L321.593 191.976L324.486 181.42C324.486 181.42 333.621 165.089 318.061 142.424Z" fill="black"/>
<path d="M286.155 187.259L308.877 184.597L304.765 149.485L282.042 152.146L286.155 187.259Z" fill="#FFD200"/>
<path d="M288.519 154.355L299.094 153.116L298.49 147.965L287.915 149.203L288.519 154.355Z" fill="#24285B"/>
<path d="M286.778 190.139L321.593 191.976L330.89 227.247L280.566 225.451L286.778 190.139Z" fill="#24285B"/>
<path opacity="0.08" d="M283.429 164.145L307.596 173.787L308.865 184.627L286.139 187.287L283.429 164.145Z" fill="black"/>
<path d="M318.345 144.109C318.284 142.556 318.712 141.024 319.568 139.727C320.425 138.431 321.667 137.437 323.119 136.884C324.571 136.331 326.16 136.248 327.662 136.646C329.163 137.045 330.502 137.905 331.489 139.105C336.427 145.04 339.039 152.569 338.838 160.288C338.553 180.923 335.793 203.263 291.254 178.852L293.65 172.305C293.65 172.305 313.412 181.806 321.664 178.72C327.733 176.457 318.974 158.278 318.345 144.109Z" fill="#F4A28C"/>
<path d="M293.65 172.285C293.65 172.285 286.23 168.763 283.073 172.285C279.917 175.807 284.941 178.974 291.254 178.832L293.65 172.285Z" fill="#F4A28C"/>
<path d="M302.663 106.401L300.947 110.675L308.052 113.395C308.052 113.395 308.458 118.155 305.951 119.018C306.531 118.989 307.1 118.844 307.623 118.591C308.146 118.338 308.613 117.983 308.996 117.546C309.294 117.218 309.708 117.02 310.15 116.993C310.592 116.967 311.027 117.114 311.361 117.404L311.453 117.475C313.477 115.482 314.902 112.961 315.563 110.197C316.375 105.995 311.696 105.346 311.696 105.346C311.696 105.346 305.444 100.981 302.663 106.401Z" fill="#24285B"/>
<path d="M311.666 105.346C311.666 105.346 311.981 101.286 319.248 101.956C326.515 102.626 319.248 112.42 325.226 121.565C325.226 121.565 314.244 119.241 313.919 109.385L311.666 105.346Z" fill="#24285B"/>
<path d="M311.209 105.062C311.76 104.764 312.385 104.633 313.009 104.685C313.633 104.737 314.228 104.971 314.721 105.356C316.751 106.665 317.685 111.446 314.447 113.05C314.447 113.05 317.137 106.614 311.209 105.062Z" fill="#FFD200"/>
<path d="M321.166 166.439H340.127C340.127 166.439 342.157 138.76 326.515 135.217C310.874 131.675 321.166 166.439 321.166 166.439Z" fill="#54CE5C"/>
<path d="M241.418 71.4346H237.967V195.244H241.418V71.4346Z" fill="#C9C9C9"/>
<path opacity="0.46" d="M321.166 166.439H340.127C340.127 166.439 342.157 138.76 326.515 135.217C310.874 131.675 321.166 166.439 321.166 166.439Z" fill="white"/>
<path d="M230.588 152.147H251.324V134.842H230.588V152.147Z" fill="#54CE5C"/>
<path d="M264.448 104.696H285.185V87.3904H264.448V104.696Z" fill="#54CE5C"/>
<path d="M126.459 107.335H147.683V89.6234H126.459V107.335Z" fill="#24285B"/>
<path opacity="0.26" d="M139.572 85.533H134.68V93.9067H139.572V85.533Z" fill="white"/>
<path d="M178.64 180.385H199.864V162.673H178.64V180.385Z" fill="#24285B"/>
<path opacity="0.26" d="M191.744 158.572H186.852V166.946H191.744V158.572Z" fill="white"/>
<path d="M195.885 106.868H217.108V89.1565H195.885V106.868Z" fill="#FFD200"/>
<path opacity="0.26" d="M208.988 85.0559H204.096V93.4297H208.988V85.0559Z" fill="white"/>
<path opacity="0.26" d="M276.821 84.7108H271.929V93.0846H276.821V84.7108Z" fill="white"/>
<path d="M174.55 71.4346H171.099V195.244H174.55V71.4346Z" fill="#C9C9C9"/>
<path d="M154.331 63.3146H118.572V73.1601H154.331V63.3146Z" fill="#C9C9C9"/>
<path opacity="0.58" d="M222.752 63.3146H186.994V73.1601H222.752V63.3146Z" fill="#C9C9C9"/>
<path opacity="0.3" d="M291.092 63.3146H255.333V73.1601H291.092V63.3146Z" fill="#C9C9C9"/>
<path opacity="0.58" d="M205.66 119.383H186.994V125.666H205.66V119.383Z" fill="#C9C9C9"/>
<path opacity="0.58" d="M205.66 130.599H186.994V136.882H205.66V130.599Z" fill="#C9C9C9"/>
</svg>
