<svg id="Layer_1" data-name="Layer 1" xmlns="http://www.w3.org/2000/svg" viewBox="0 0 400 300" width="406" height="306" class="illustration styles_illustrationTablet__1DWOa"><polygon points="173.48 246.74 176.08 263.95 242.62 263.95 234.93 244.77 173.48 246.74" fill="#24285b"></polygon><circle cx="149.5" cy="97.95" r="18.66" fill="#24285b"></circle><path d="M226.24,122s11.59,3.74,26.12,21.72,18.4,29.85,18.4,29.85l-27.43,3.91Z" fill="#54CE5C"></path><path d="M226.24,122s11.59,3.74,26.12,21.72,18.4,29.85,18.4,29.85l-27.43,3.91Z" fill="#fff" opacity="0.46"></path><path d="M204,85.47s1,7.77-.05,13a3.93,3.93,0,0,1-4.67,3.06c-2.64-.58-6-2.13-7.1-6.23l-2.65-6.74a7.05,7.05,0,0,1,2.76-7.66C196.55,77.55,203.6,80.7,204,85.47Z" fill="#f4a28c"></path><polygon points="190 89.8 187.12 115.34 201.31 115.92 197.71 97.11 190 89.8" fill="#f4a28c"></polygon><path d="M202.06,85.88a30.82,30.82,0,0,1-7.25-.23,6.53,6.53,0,0,1,.33,7.17,5.33,5.33,0,0,1-6.33,2.42l-.33-10.07a8,8,0,0,1,3.72-7.3,28.81,28.81,0,0,1,3.29-1.8c2.84-1.29,7.18.45,9.69-1.62a1.89,1.89,0,0,1,3,1.1c.59,3,.26,7.88-3.81,9.74A7.31,7.31,0,0,1,202.06,85.88Z" fill="#ffd200"></path><path d="M196,92.55s-.2-3-2.45-2.68-2,4.7,1.09,5Z" fill="#f4a28c"></path><path d="M204.39,90.4l2.32,2.92a1.25,1.25,0,0,1-.7,2l-3,.7Z" fill="#f4a28c"></path><path d="M198.67,101.19A9.3,9.3,0,0,1,194,98.67s.42,4.68,5.78,9.08Z" fill="#ce8172" opacity="0.31"></path><path d="M146.77,138.05c5.85-15.8,31-23.47,47.86-22.78l6.29.26s44.21.17,47.24,40.44-15.44,72-15.44,72l-59.41,1.69S133.66,173.46,146.77,138.05Z" fill="#54CE5C"></path><path d="M232.9,115.18s-4.22-17.65-7.53-19.05.32,8.82.32,8.82S220,98.61,218,99.12s4.61,8.91,4.61,8.91-7.09,5.2,4.13,9.82Z" fill="#f4a28c"></path><path d="M177.84,138.16s11.27,4.15,8.61,22.41S184,181,184,181l-24.31,3.46Z" opacity="0.06"></path><path d="M274.51,172.3l-40.3-59.73-10.29,4.52s13.33,64.36,41.55,69.52C273.39,188.05,279,179,274.51,172.3Z" fill="#54CE5C"></path><path d="M274.51,172.3l-40.3-59.73-10.29,4.52s13.33,64.36,41.55,69.52C273.39,188.05,279,179,274.51,172.3Z" fill="#fff" opacity="0.46"></path><path d="M106.13,139.54s-20,60.88,14.94,61.57c28.54.56,54.83-25,57.19-57.82,1.05-14.7-16.61-22.91-27-12.46a25.69,25.69,0,0,0-7.16,14c-2.24,12.73,3.91,32-14.54,34.66s-18.29-40-18.29-40Z" fill="#54CE5C"></path><path d="M106.13,139.54s-20,60.88,14.94,61.57c28.54.56,54.83-25,57.19-57.82,1.05-14.7-16.61-22.91-27-12.46a25.69,25.69,0,0,0-7.16,14c-2.24,12.73,3.91,32-14.54,34.66s-18.29-40-18.29-40Z" fill="#fff" opacity="0.46"></path><path d="M97.88,63.42,125.94,260.3l158.41-22.57L256.3,40.85Zm163,106.64-131.4,18.72L113.1,73.88,244.5,55.16Z" fill="#e6e6e6"></path><path d="M146.9,197.49a4.24,4.24,0,0,0-2.46,1.24,6,6,0,0,0-1.26,2,6.09,6.09,0,0,0-1.76-1.61,4.13,4.13,0,0,0-2.7-.54,4.79,4.79,0,0,0-4,5.66c.42,3.1,3.2,4.88,7.4,7.58l2.36,1.53a.51.51,0,0,0,.38.09.57.57,0,0,0,.34-.18c.66-.76,1.3-1.48,1.87-2.11,3.33-3.72,5.53-6.18,5.11-9.27A4.78,4.78,0,0,0,146.9,197.49Z" fill="#bfbfbf"></path><path d="M153.05,89.78a4.72,4.72,0,0,0-2.76,1.39,6.74,6.74,0,0,0-1.41,2.27,6.76,6.76,0,0,0-2-1.81,4.69,4.69,0,0,0-3-.61c-3,.4-4.88,3.13-4.44,6.35.47,3.47,3.58,5.47,8.29,8.5l2.65,1.72a.57.57,0,0,0,.42.1.61.61,0,0,0,.39-.21c.74-.85,1.46-1.65,2.09-2.36,3.74-4.17,6.21-6.93,5.74-10.4C158.58,91.5,156,89.38,153.05,89.78Z" fill="#fff"></path><path d="M173.37,205.16a6.18,6.18,0,0,0,1.74-5.08c-.52-3.61-4.41-6-8.69-5.43s-7.34,4-6.82,7.64,4.4,6.05,8.69,5.44a8.9,8.9,0,0,0,3.25-1.13l4.66,2.4Z" fill="#bfbfbf" opacity="0.6"></path><rect x="136.3" y="214.75" width="132" height="34.5" transform="matrix(0.99, -0.14, 0.14, 0.99, -30.7, 30.86)" fill="#c1c1c1" opacity="0.46"></rect><path d="M104.64,137.28a7,7,0,0,1,.26-7.67c1-1.3,2.34-2.12,4.22-1.07C113.35,130.89,112.51,150.7,104.64,137.28Z" fill="#f4a28c"></path><circle cx="241.57" cy="191.1" r="2.77" fill="#bfbfbf" opacity="0.6"></circle><circle cx="250.02" cy="189.89" r="2.77" fill="#bfbfbf" opacity="0.6"></circle><circle cx="258.7" cy="188.66" r="2.77" fill="#bfbfbf" opacity="0.6"></circle><path d="M180.68,116.35s-.36-7.27,8.52-8.07,17.75-1.49,19.12,8C208.32,116.26,199.81,121,180.68,116.35Z" fill="#54CE5C"></path><path d="M180.68,116.35s-.36-7.27,8.52-8.07,17.75-1.49,19.12,8C208.32,116.26,199.81,121,180.68,116.35Z" fill="#fff" opacity="0.46"></path></svg>