<svg id="Layer_1" data-name="Layer 1" xmlns="http://www.w3.org/2000/svg" viewBox="0 0 400 300" width="406" height="306" class="illustration styles_illustrationTablet__1DWOa"><title>_</title><ellipse cx="200" cy="258.01" rx="125.11" ry="12.72" fill="#e6e6e6" opacity="0.45"></ellipse><path d="M319.08,34.92V77.85a5.66,5.66,0,0,1-5.66,5.67h-58.9L245.62,99V83.52h-5.13a5.67,5.67,0,0,1-5.67-5.67V34.92a5.67,5.67,0,0,1,5.67-5.66h72.93A5.66,5.66,0,0,1,319.08,34.92Z" fill="#e6e6e6"></path><path d="M105.32,220.91H94.13v-18.1h14.81l4.94-24.27H94.13V160.36h23.45l6.5-32.09h18.43L136,160.36h18.18l6.34-32.09h19.09L173,160.36h11.35v18.18H169.33l-4.93,24.27h20v18.1h-23.7L154.19,253H135.85l6.33-32.09H123.92L117.42,253H98.82Zm27.07-42.37-4.85,24.27H145.8l4.77-24.27Z" fill="#e6e6e6"></path><path d="M299.83,43.75v0a6.72,6.72,0,0,1-1,1.46,11.81,11.81,0,0,1-1.2,1.25c-.34.33-.69.65-1.06,1a1.89,1.89,0,0,0-.77,1.57,22.24,22.24,0,0,1-.21,2.94,25.85,25.85,0,0,1-1.17,5,22,22,0,0,1-1.27,3,23.9,23.9,0,0,1-7.79,9.06,24.83,24.83,0,0,1-2.28,1.35,22.45,22.45,0,0,1-5.43,2,17.53,17.53,0,0,1-3.21.48c-.46,0-.93,0-1.39.09h-2.4c-.38,0-.75,0-1.12-.06a18.1,18.1,0,0,1-2.66-.36,24.05,24.05,0,0,1-4.61-1.48,23.78,23.78,0,0,1-2.94-1.48.87.87,0,0,1-.35-.36v0a.27.27,0,0,1,.25-.09l1.36.08a17,17,0,0,0,4.6-.57,20.08,20.08,0,0,0,3.2-1.17A19.69,19.69,0,0,0,271,65.89c0-.07,0-.07-.07-.07a8,8,0,0,1-4.22-1.49,7.81,7.81,0,0,1-2.67-3c-.17-.33-.34-.67-.49-1,0-.11-.11-.23,0-.35s.22-.09.34-.07a7.72,7.72,0,0,0,1.86,0,5.61,5.61,0,0,0,1.07-.1,14.23,14.23,0,0,1-2-.83,6.15,6.15,0,0,1-1.28-.87,8.54,8.54,0,0,1-3-5.57c0-.25,0-.51-.07-.76s.1-.44.41-.29a10.17,10.17,0,0,0,3,.87,1.65,1.65,0,0,0-.32-.28,8.55,8.55,0,0,1-2.92-5.17,8,8,0,0,1,.58-4.71l.32-.72c.12-.26.26-.26.45-.05.67.74,1.34,1.5,2.08,2.18a24.24,24.24,0,0,0,10.17,5.6,24.87,24.87,0,0,0,3.93.69c.16,0,.32,0,.48,0s.24-.07.2-.24a8.62,8.62,0,0,1-.1-1.68,8.32,8.32,0,0,1,2.05-5.4,8.84,8.84,0,0,1,4.28-2.67c.38-.11.78-.07,1.16-.15h1.94c.22,0,.45,0,.68.08a6.23,6.23,0,0,1,2.14.72,9.33,9.33,0,0,1,1.69,1.08,1,1,0,0,1,.19.16,1,1,0,0,0,1.09.31,16.89,16.89,0,0,0,3.09-1.08,9.79,9.79,0,0,0,1.34-.66.21.21,0,0,1,.26,0c.09.08.05.18,0,.28a8.64,8.64,0,0,1-1.34,2.41,11,11,0,0,1-1.75,1.73,23.16,23.16,0,0,0,3.88-1.08C299.61,43.68,299.73,43.63,299.83,43.75Z" fill="#54CE5C"></path><path d="M193.89,69.1s30.31-7.76,44.78,32,53.42,33.49,53.42,33.49l-.23,10.55s-29.11,6.22-55.27-14.22S193.89,69.1,193.89,69.1Z" fill="#54CE5C"></path><path d="M193.89,69.1s30.31-7.76,44.78,32,53.42,33.49,53.42,33.49l-.23,10.55s-29.11,6.22-55.27-14.22S193.89,69.1,193.89,69.1Z" fill="#fff" opacity="0.44"></path><path d="M221.72,257.21s1.8,3.39,5.06,3.2,4.57,2.84,1.78,4.08-10.8-1.41-10.8-1.41l-.58-5.95Z" fill="#54CE5C"></path><path d="M207.45,40.32s.61,6.8-.53,11.33a3.44,3.44,0,0,1-4.18,2.48c-2.27-.61-5.16-2.08-5.93-5.69l-2.05-5.95a6.13,6.13,0,0,1,2.68-6.56C201.28,33.16,207.29,36.16,207.45,40.32Z" fill="#f4a28c"></path><polygon points="195.13 43.57 191.67 65.66 203.98 66.7 201.56 50.21 195.13 43.57" fill="#f4a28c"></polygon><path d="M205.76,40.61a27.07,27.07,0,0,1-6.29-.47,5.69,5.69,0,0,1,0,6.25,4.64,4.64,0,0,1-5.59,1.86l.09-8.77a7,7,0,0,1,3.51-6.21,26.36,26.36,0,0,1,2.92-1.43c2.31-.93,6.3-.5,8.16,1.21A4.16,4.16,0,0,1,210,35.92a6.31,6.31,0,0,1-.39,2.18C208.88,40.16,207.86,40.5,205.76,40.61Z" fill="#24285b"></path><path d="M200.21,46.18s-.05-2.62-2-2.42-1.91,4,.77,4.35Z" fill="#f4a28c"></path><path d="M207.61,44.63l1.91,2.62a1.1,1.1,0,0,1-.68,1.72l-2.61.49Z" fill="#f4a28c"></path><path d="M202.24,53.79a8,8,0,0,1-4-2.37s.18,4.09,4.69,8.12Z" fill="#ce8172" opacity="0.31"></path><path d="M189.83,65.67,205.16,67s30.39,8.93,29.16,37.5-4,63.54-4,63.54l-40.87,5.34S121.53,80.88,189.83,65.67Z" fill="#54CE5C"></path><path d="M189.45,84.63s8.37,6.47,7.36,23.83-5.14,37.07,12.77,35.07,23-7.71,23-7.71L230.34,168l-40.87,5.34L185.79,168S159.11,108.8,189.45,84.63Z" opacity="0.08"></path><path d="M230.34,168l11,9.13a23.76,23.76,0,0,1-3.54,39l-21,11.86-7-5.1,15.74-13.06a8.33,8.33,0,0,0-.91-13.48l-5.61-3.5a25.35,25.35,0,0,0-10.25-3.68c-6.08-.77-16.21-3.87-19.23-15.79Z" fill="#24285b"></path><path d="M190.78,90.19c-.72-14-18.65-19.47-26.9-8.09-5.08,7-8.61,17-6.13,30.7,6.13,34,9.7,60.51,27.83,58.73s52.34-41.62,52.34-41.62L227.45,123s-21.19,23-34.72,23.24C183.13,146.43,192,114.1,190.78,90.19Z" fill="#54CE5C"></path><rect x="236.18" y="103.02" width="10.94" height="19.71" transform="translate(436.77 294.72) rotate(-162.06)" fill="#ffd200"></rect><path d="M190.78,90.19c-.72-14-18.65-19.47-26.9-8.09-5.08,7-8.61,17-6.13,30.7,6.13,34,9.7,60.51,27.83,58.73s52.34-41.62,52.34-41.62L227.45,123s-21.19,23-34.72,23.24C183.13,146.43,192,114.1,190.78,90.19Z" fill="#fff" opacity="0.44"></path><path d="M235.44,128.27s7.52-5.77,5.13-10.11-11.95,5.62-11.95,5.62Z" fill="#f4a28c"></path><path d="M189.47,173.34l27.71,83.79,6.95-.07s-9.44-55.92-8.42-79.41Z" fill="#24285b"></path><path d="M292,135.87s10.63-5.65,10.32.51-10.48,6.53-10.48,6.53Z" fill="#f4a28c"></path><path d="M299.47,242.91s11.07-3,13.52-13.26c0,0-17.12-3.53-17.68,14.15Z" fill="#54CE5C" opacity="0.58"></path><path d="M298.12,241.8s7.78-12.17,1-23.62c0,0-13.06,8.22-7.34,23.62Z" fill="#54CE5C" opacity="0.73"></path><path d="M296.13,241.8s-4-12.91-16.35-15.4c0,0-2.35,8.36,7.92,15.4Z" fill="#54CE5C"></path><polygon points="304.15 241.55 301.84 256.87 287.73 256.87 285.71 241.55 304.15 241.55" fill="#24285b"></polygon></svg>