<svg width="406" height="306" viewBox="0 0 406 306" fill="none" xmlns="http://www.w3.org/2000/svg">
<path d="M221.869 30.7737H79.5557V197.802H221.869V30.7737Z" fill="#E6E6E6"/>
<path d="M335.041 41.1166H239.367V130.213H335.041V41.1166Z" fill="#E6E6E6"/>
<path d="M352.063 145.154H283.865V179.39H352.063V145.154Z" fill="#E6E6E6"/>
<path opacity="0.08" d="M199.244 120.814C199.244 120.814 191.936 118.916 190.109 124.093C188.282 129.269 171.322 122.53 169.282 137.897C168.145 146.463 151.874 161.891 130.712 166.601C109.549 171.311 108.128 197.812 108.128 197.812H165.648L203.822 141.835L199.244 120.814Z" fill="black"/>
<path opacity="0.45" d="M210.836 284.514C273.715 284.514 324.688 273.039 324.688 258.885C324.688 244.73 273.715 233.256 210.836 233.256C147.957 233.256 96.9832 244.73 96.9832 258.885C96.9832 273.039 147.957 284.514 210.836 284.514Z" fill="#E6E6E6"/>
<path d="M193.449 143.865C193.449 143.865 143.643 138.587 145.521 164.936C147.398 191.286 175.321 247.395 175.321 247.395H236.495C236.495 247.395 282.921 176.193 260.337 153.294C237.754 130.396 232.587 150.057 193.449 143.865Z" fill="#54CE5C"/>
<path d="M175.23 255.962L212.46 266.01L245.488 249.242L250.502 240.31H217.21H164.247L175.23 255.962Z" fill="#24285B"/>
<path d="M169.424 172.397C174.083 156.796 165.273 139.754 148.606 152.239C137.177 160.795 123.627 188.089 122.927 213.332C121.303 271.379 192.505 208.937 201.356 175.695L192.596 170.519C192.596 170.519 177.828 198.36 161.74 204.389C150.129 208.744 162.532 195.447 169.424 172.397Z" fill="#54CE5C"/>
<path opacity="0.46" d="M169.424 172.397C174.083 156.796 165.273 139.754 148.606 152.239C137.177 160.795 123.627 188.089 122.927 213.332C121.303 271.379 192.505 208.937 201.356 175.695L192.596 170.519C192.596 170.519 177.828 198.36 161.74 204.389C150.129 208.744 162.532 195.447 169.424 172.397Z" fill="white"/>
<path d="M193.449 143.865C193.449 143.865 185.786 155.923 193.297 160.237C200.808 164.551 203.213 159.628 203.213 159.628C203.213 159.628 208.806 166.225 213.81 161.11C218.814 155.994 218.103 145.804 213.008 141.104C207.913 136.405 193.449 143.865 193.449 143.865Z" fill="white"/>
<path d="M195.195 144.23C195.556 146.462 195.79 148.712 195.895 150.97C195.996 154.015 196.981 158.633 201.853 159.526C209.354 160.917 211.343 149.062 211.343 149.062C211.343 149.062 216.063 137.897 207.943 136.425C200.594 135.004 193.703 134.03 195.195 144.23Z" fill="#F4A28C"/>
<path opacity="0.08" d="M224.102 160.958C224.102 160.958 219.453 170.722 231.207 190.748C237.936 202.217 217.2 221.35 217.2 221.35L165.607 226.516L175.321 247.395H236.495C236.495 247.395 263.372 203.669 265.443 181.176C267.513 158.684 224.102 160.958 224.102 160.958Z" fill="black"/>
<path d="M210.836 149.498C210.836 149.498 211.262 145.895 214.398 146.047C217.535 146.199 216.307 152.929 210.836 149.498Z" fill="#F4A28C"/>
<path d="M197.001 147.489C197.001 147.489 198.098 144.038 195.185 142.87C192.272 141.703 190.597 148.351 197.001 147.489Z" fill="#F4A28C"/>
<path d="M300.643 171.575C305.783 171.575 309.951 167.407 309.951 162.267C309.951 157.127 305.783 152.959 300.643 152.959C295.503 152.959 291.335 157.127 291.335 162.267C291.335 167.407 295.503 171.575 300.643 171.575Z" fill="#C9C9C9"/>
<path d="M177.656 237.133L173.342 197.812H239.368L232.78 239.143L233.724 244.441L176.955 244.888L177.656 237.133Z" fill="#FFD200"/>
<path opacity="0.08" d="M294.847 163.708C294.847 163.708 312.62 165.819 316.162 179.39H304.124L294.847 163.708Z" fill="black"/>
<path d="M204.228 255.962C204.228 255.962 216.763 260.346 212.46 266.01C208.156 271.674 201.356 262.265 201.356 262.265L204.228 255.962Z" fill="#54CE5C"/>
<path opacity="0.08" d="M239.367 197.812L226.284 215.067C218.645 225.153 208.326 232.89 196.504 237.397L176.955 244.858L229.309 244.441H233.724L232.78 239.143L239.367 197.812Z" fill="black"/>
<path d="M195.195 144.23C195.195 144.23 183.015 142.485 188.475 133.553C193.936 124.621 195.103 131.309 197.671 124.418C200.239 117.526 202.553 116.156 206.309 119.109C210.064 122.063 206.431 128.244 212.115 126.529C217.799 124.813 221.696 123.159 222.772 127.869C223.848 132.578 222.772 134.842 219.108 136.456C215.444 138.069 221.199 144.413 212.003 147.001C202.807 149.59 198.006 139.531 198.006 139.531L195.195 144.23Z" fill="#24285B"/>
<path d="M204.614 253.779C204.614 253.779 153.975 227.927 149.662 241.681C145.348 255.434 180.244 263.422 202.766 264.254L204.614 253.779Z" fill="#24285B"/>
<path d="M207.009 224.639C210.132 224.639 212.663 222.108 212.663 218.985C212.663 215.863 210.132 213.332 207.009 213.332C203.887 213.332 201.356 215.863 201.356 218.985C201.356 222.108 203.887 224.639 207.009 224.639Z" fill="white"/>
<path d="M216.926 255.799C216.926 255.799 257.313 215.778 265.646 227.572C273.979 239.366 243.113 257.586 221.909 265.218L216.926 255.799Z" fill="#24285B"/>
<path d="M218.509 258.824C218.509 258.824 206.542 269.481 213.434 272.618C220.326 275.754 221.838 265.218 221.838 265.218L218.509 258.824Z" fill="#54CE5C"/>
<path d="M224.102 160.958C223.653 156.46 225.002 151.967 227.855 148.46C230.707 144.953 234.832 142.717 239.327 142.241C248.462 141.226 260.459 141.865 271.127 148.544C291.833 161.526 314.772 171.889 309.078 195.397C303.384 218.904 262.388 228.8 262.388 228.8L256.907 219.868C256.907 219.868 293.122 207.688 286.535 188.495C280.566 171.27 228 200.066 224.102 160.958Z" fill="#54CE5C"/>
<path opacity="0.46" d="M224.102 160.958C223.653 156.46 225.002 151.967 227.855 148.46C230.707 144.953 234.832 142.717 239.327 142.241C248.462 141.226 260.459 141.865 271.127 148.544C291.833 161.526 314.772 171.889 309.078 195.397C303.384 218.904 262.388 228.8 262.388 228.8L256.907 219.868C256.907 219.868 293.122 207.688 286.535 188.495C280.566 171.27 228 200.066 224.102 160.958Z" fill="white"/>
<path d="M257.81 221.35C257.81 221.35 246.381 229.074 250.532 231.206C254.684 233.337 261.697 227.674 261.697 227.674L257.81 221.35Z" fill="#F4A28C"/>
<path d="M194.129 171.422C194.129 171.422 198.189 161.394 203.822 162.206C209.455 163.018 200.686 175.3 200.686 175.3L194.129 171.422Z" fill="#F4A28C"/>
<path d="M136.802 50.6981H95.5015V107.315H136.802V50.6981Z" fill="#C9C9C9"/>
<path d="M282.028 52.0176H250.086V81.5643H282.028V52.0176Z" fill="#C9C9C9"/>
<path opacity="0.44" d="M282.028 89.8163H250.086V119.363H282.028V89.8163Z" fill="#C9C9C9"/>
<path opacity="0.44" d="M324.435 89.8163H292.493V119.363H324.435V89.8163Z" fill="#C9C9C9"/>
<path opacity="0.63" d="M252.471 76.0021L258.713 66.3596L266.062 74.9567L273.076 62.6143L279.643 76.1848V79.5952H252.471V76.0021Z" fill="white"/>
<path d="M265.808 64.6341C267.568 64.6341 268.995 63.2072 268.995 61.447C268.995 59.6868 267.568 58.2599 265.808 58.2599C264.048 58.2599 262.621 59.6868 262.621 61.447C262.621 63.2072 264.048 64.6341 265.808 64.6341Z" fill="white"/>
<path d="M324.688 52.0176H292.746V81.5643H324.688V52.0176Z" fill="#C9C9C9"/>
<path opacity="0.63" d="M295.131 76.0021L301.374 66.3596L308.712 74.9567L315.736 62.6143L322.303 76.1848V79.5952H295.131V76.0021Z" fill="white"/>
<path d="M308.459 64.6341C310.219 64.6341 311.646 63.2072 311.646 61.447C311.646 59.6868 310.219 58.2599 308.459 58.2599C306.698 58.2599 305.271 59.6868 305.271 61.447C305.271 63.2072 306.698 64.6341 308.459 64.6341Z" fill="white"/>
<path d="M116.695 127.473H55.0942V162.825H116.695V127.473Z" fill="#FFD200"/>
<path d="M77.6171 153.853C77.2991 153.859 76.9894 153.751 76.7442 153.548L67.6092 146.321C67.4426 146.191 67.3077 146.025 67.2145 145.835C67.1214 145.645 67.0724 145.437 67.0713 145.225C67.0718 145.013 67.1195 144.804 67.2107 144.613C67.302 144.421 67.4347 144.253 67.5991 144.119L76.7341 136.76C77.0262 136.526 77.3993 136.417 77.7714 136.458C78.1436 136.499 78.4842 136.686 78.7184 136.978C78.9526 137.27 79.0612 137.643 79.0203 138.016C78.9793 138.388 78.7923 138.728 78.5002 138.963L70.7354 145.205L78.49 151.295C78.7196 151.477 78.887 151.725 78.969 152.006C79.0509 152.287 79.0434 152.587 78.9475 152.863C78.8516 153.14 78.672 153.38 78.4336 153.55C78.1953 153.72 77.9099 153.811 77.6171 153.812V153.853Z" fill="#24285B"/>
<path d="M94.1616 153.853C93.9483 153.854 93.7376 153.806 93.5457 153.713C93.3539 153.619 93.1861 153.483 93.0553 153.315C92.8242 153.021 92.719 152.648 92.7627 152.277C92.8065 151.906 92.9957 151.567 93.2887 151.335L101.043 145.245L93.2786 139.003C92.9811 138.769 92.7889 138.426 92.7441 138.05C92.6994 137.674 92.8058 137.296 93.04 136.999C93.2742 136.701 93.617 136.509 93.993 136.464C94.3689 136.419 94.7472 136.526 95.0447 136.76L104.18 144.119C104.344 144.253 104.477 144.421 104.568 144.613C104.659 144.804 104.707 145.013 104.707 145.225C104.706 145.437 104.657 145.645 104.564 145.835C104.471 146.025 104.336 146.191 104.17 146.321L95.0345 153.548C94.7885 153.749 94.4793 153.857 94.1616 153.853V153.853Z" fill="#24285B"/>
<path d="M82.0525 153.853C81.8501 153.851 81.6501 153.81 81.4638 153.731C81.1244 153.572 80.8615 153.286 80.7323 152.934C80.603 152.582 80.6179 152.194 80.7736 151.853L87.432 137.278C87.5055 137.104 87.613 136.947 87.7481 136.816C87.8832 136.685 88.0432 136.582 88.2187 136.514C88.3941 136.446 88.5815 136.413 88.7697 136.418C88.9579 136.423 89.1432 136.466 89.3146 136.544C89.4861 136.622 89.6401 136.734 89.7678 136.872C89.8955 137.01 89.9942 137.173 90.058 137.35C90.1219 137.527 90.1497 137.715 90.1397 137.903C90.1297 138.091 90.0822 138.275 89.9999 138.445L83.3416 153C83.2319 153.251 83.0518 153.466 82.8231 153.617C82.5943 153.768 82.3267 153.85 82.0525 153.853V153.853Z" fill="#24285B"/>
<path d="M116.167 69.6888C119.323 69.6888 121.881 67.1303 121.881 63.9743C121.881 60.8183 119.323 58.2599 116.167 58.2599C113.011 58.2599 110.452 60.8183 110.452 63.9743C110.452 67.1303 113.011 69.6888 116.167 69.6888Z" fill="white"/>
<path opacity="0.56" d="M128.337 76.8851H104.718V81.5643H128.337V76.8851Z" fill="white"/>
<path opacity="0.19" d="M128.337 87.4716H104.718V92.1508H128.337V87.4716Z" fill="white"/>
<path opacity="0.46" d="M209.73 50.6981H150.707V85.6649H209.73V50.6981Z" fill="white"/>
<path d="M209.73 95.6525H150.707V107.315H209.73V95.6525Z" fill="white"/>
<path d="M209.729 95.6525H192.596V107.315H209.729V95.6525Z" fill="#C9C9C9"/>
<path d="M339.853 156.349H317.015V160.491H339.853V156.349Z" fill="#C9C9C9"/>
<path opacity="0.45" d="M339.853 164.043H317.015V168.184H339.853V164.043Z" fill="#C9C9C9"/>
</svg>
