<svg width="406" height="306" viewBox="0 0 406 306" fill="none" xmlns="http://www.w3.org/2000/svg">
<path opacity="0.45" d="M89.7262 272.039C121.516 272.039 147.287 267.159 147.287 261.138C147.287 255.118 121.516 250.237 89.7262 250.237C57.9363 250.237 32.1655 255.118 32.1655 261.138C32.1655 267.159 57.9363 272.039 89.7262 272.039Z" fill="#E6E6E6"/>
<path d="M304.774 78.1945H92.5376V217.656H304.774V78.1945Z" fill="#E6E6E6"/>
<path d="M102.799 90.9226C104.717 90.9226 106.271 89.3684 106.271 87.4513C106.271 85.5341 104.717 83.98 102.799 83.98C100.882 83.98 99.3281 85.5341 99.3281 87.4513C99.3281 89.3684 100.882 90.9226 102.799 90.9226Z" fill="#24285B"/>
<path d="M113.111 90.9226C115.029 90.9226 116.583 89.3684 116.583 87.4513C116.583 85.5341 115.029 83.98 113.111 83.98C111.194 83.98 109.64 85.5341 109.64 87.4513C109.64 89.3684 111.194 90.9226 113.111 90.9226Z" fill="#54CE5C"/>
<path d="M122.835 90.9226C124.752 90.9226 126.306 89.3684 126.306 87.4513C126.306 85.5341 124.752 83.98 122.835 83.98C120.918 83.98 119.364 85.5341 119.364 87.4513C119.364 89.3684 120.918 90.9226 122.835 90.9226Z" fill="#FFD200"/>
<path opacity="0.08" d="M270.376 78.1945L220.387 78.3975L212.389 89.6539L137.025 158.867L143.217 170.894L122.054 179.238H101.429L98.6987 217.656H122.815L126.226 195.224C146.414 192.534 159.721 174.031 159.721 174.031L247.66 136.425L236.495 110.705L251.345 103.6L252.167 108.259C252.167 108.259 260.195 106.046 259.86 98.5656C259.525 91.085 258.825 81.7978 270.376 78.1945Z" fill="black"/>
<path d="M229.126 49.8456C227.898 59.6809 222.823 80.0012 201.985 89.055L205.03 94.13C205.03 94.13 234.028 84.995 241.022 61.65C244.158 51.1448 242.159 46.5874 238.992 44.7401C238.03 44.209 236.952 43.9234 235.853 43.9086C234.755 43.8938 233.67 44.1502 232.694 44.6552C231.718 45.1601 230.882 45.898 230.26 46.8034C229.637 47.7088 229.248 48.7537 229.126 49.8456Z" fill="#54CE5C"/>
<path opacity="0.2" d="M229.126 49.8456C227.898 59.6809 222.823 80.0012 201.985 89.055L205.03 94.13C205.03 94.13 234.028 84.995 241.022 61.65C244.158 51.1448 242.159 46.5874 238.992 44.7401C238.03 44.209 236.952 43.9234 235.853 43.9086C234.755 43.8938 233.67 44.1502 232.694 44.6552C231.718 45.1601 230.882 45.898 230.26 46.8034C229.637 47.7088 229.248 48.7537 229.126 49.8456Z" fill="white"/>
<path d="M231.785 34.2957L236.769 40.3756L241.154 35.666L233.287 28.6828L231.785 34.2957Z" fill="#F4A28C"/>
<path d="M228.273 23.1308C227.509 23.012 226.727 23.0864 225.998 23.3472C225.269 23.608 224.618 24.047 224.102 24.624C223.587 25.2011 223.224 25.898 223.046 26.6512C222.869 27.4045 222.883 28.1901 223.087 28.9366C224.01 32.4891 226 37.3306 229.796 35.666C235.592 33.1285 232.547 25.516 232.547 25.516C231.388 24.3181 229.901 23.4884 228.273 23.1308Z" fill="#F4A28C"/>
<path d="M235.978 70.7241L226.091 75.7991C225.245 76.2396 224.496 76.8461 223.888 77.5825C223.281 78.3189 222.829 79.17 222.558 80.0851C222.287 81.0002 222.203 81.9606 222.312 82.9088C222.42 83.857 222.718 84.7736 223.189 85.604L232.07 100.981L236.394 97.9363L231.319 83.909C231.233 83.677 231.197 83.4295 231.214 83.1827C231.23 82.9359 231.299 82.6954 231.415 82.4769C231.531 82.2584 231.691 82.0669 231.887 81.9149C232.082 81.7628 232.307 81.6538 232.547 81.5948L242.403 79.1892L240.647 83.8582C240.093 85.317 239.896 86.887 240.073 88.4372C240.249 89.9875 240.794 91.473 241.662 92.7699L250.797 106.391L254.258 104.27L249.863 92.2015C249.38 90.8767 249.269 89.4448 249.543 88.0616C249.817 86.6783 250.464 85.3965 251.416 84.3556L256.176 79.1385L235.978 70.7241Z" fill="#24285B"/>
<path d="M331.752 194.615H272.375V232.17H331.752V194.615Z" fill="#F2F2F2"/>
<path opacity="0.08" d="M272.528 194.615H262.875V217.655H272.528V194.615Z" fill="black"/>
<path d="M220.874 24.4198C220.874 24.4198 219.27 29.576 224.853 28.3073C230.435 27.0385 230.009 25.2623 230.009 25.2623C230.009 25.2623 230.435 31.3523 233.227 30.0023C236.018 28.6524 234.414 25.3333 233.227 23.0597C232.039 20.7861 231.339 20.1061 228.152 19.7711C224.965 19.4362 221.27 21.2936 220.874 24.4198Z" fill="#24285B"/>
<path d="M230.1 28.8148C230.1 28.8148 229.867 27.0791 231.542 27.4141C233.216 27.749 232.557 30.1647 231.542 30.3373C230.527 30.5098 230.1 28.8148 230.1 28.8148Z" fill="#F4A28C"/>
<path d="M82.956 160.775L85.4427 168.235L79.5456 171.981L77.4141 159.049L82.956 160.775Z" fill="#F4A28C"/>
<path d="M75.3942 151.843C75.7034 151.134 76.1847 150.513 76.7946 150.036C77.4044 149.56 78.1235 149.244 78.8866 149.116C79.6497 148.988 80.4327 149.052 81.1646 149.303C81.8965 149.554 82.5541 149.984 83.0778 150.554C85.5848 153.233 88.6095 157.507 85.189 159.821C79.9414 163.373 75.1303 156.776 75.1303 156.776C74.7265 155.142 74.8184 153.424 75.3942 151.843Z" fill="#F4A28C"/>
<path d="M79.2307 156.421C79.2307 156.421 77.8807 155.294 77.2717 156.887C76.6627 158.481 79.0378 159.263 79.7483 158.451C80.4588 157.639 79.2307 156.421 79.2307 156.421Z" fill="#F4A28C"/>
<path d="M235.713 39.0865L241.154 35.666C241.154 35.666 258.825 29.6267 264.407 35.1788C269.99 40.7308 270.386 61.6804 256.176 79.1384L235.977 70.7241C235.977 70.7241 236.383 60.6756 233.024 58.1381C229.664 55.6006 225.533 47.9881 235.713 39.0865Z" fill="#54CE5C"/>
<path d="M233.085 100.22C233.085 100.22 231.978 105.356 233.958 105.173C235.937 104.99 236.394 97.8855 236.394 97.8855L233.085 100.22Z" fill="#54CE5C"/>
<path d="M250.898 106.158C250.898 106.158 249.792 111.283 251.771 111.111C253.75 110.938 254.197 103.823 254.197 103.823L250.898 106.158Z" fill="#54CE5C"/>
<path d="M278.932 75.6265C278.932 75.6265 275.522 77.0983 276.78 78.7832C278.039 80.4681 282.353 78.1945 282.353 78.1945L282.617 75.6265H278.932Z" fill="#F4A28C"/>
<path d="M202.401 89.6539C202.401 89.6539 196.798 90.1106 197.976 91.3997C198.554 92.0977 199.283 92.6563 200.107 93.0338C200.107 93.0338 196.047 97.5709 199.001 98.4742C201.954 99.3776 204.837 93.724 204.837 93.724L202.401 89.6539Z" fill="#F4A28C"/>
<path d="M213.894 87.0178L114.916 132.7L133.034 171.955L232.012 126.273L213.894 87.0178Z" fill="#FFD200"/>
<path opacity="0.58" d="M205.752 103.197L158.255 125.024L161.222 131.48L208.719 109.653L205.752 103.197Z" fill="white"/>
<path opacity="0.58" d="M211.894 116.575L164.396 138.401L167.363 144.857L214.861 123.031L211.894 116.575Z" fill="white"/>
<path d="M144.171 155.223C150.404 155.223 155.457 150.17 155.457 143.936C155.457 137.703 150.404 132.649 144.171 132.649C137.937 132.649 132.884 137.703 132.884 143.936C132.884 150.17 137.937 155.223 144.171 155.223Z" fill="white"/>
<path d="M292.563 206.115L284.646 213.809L292.563 221.512" stroke="#A5A5A5" stroke-width="2.03" stroke-linecap="round" stroke-linejoin="round"/>
<path d="M309.687 206.115L317.604 213.809L309.687 221.512" stroke="#A5A5A5" stroke-width="2.03" stroke-linecap="round" stroke-linejoin="round"/>
<path opacity="0.58" d="M194.555 65.8927C194.555 65.8927 184.801 63.274 182.7 54.2202C182.7 54.2202 197.773 51.1041 198.27 66.6742L194.555 65.8927Z" fill="#54CE5C"/>
<path opacity="0.73" d="M195.743 64.9183C195.743 64.9183 188.891 54.1897 194.839 44.1108C194.839 44.1108 206.339 51.3477 201.305 64.9183H195.743Z" fill="#54CE5C"/>
<path d="M197.499 64.9183C197.499 64.9183 201.041 53.5503 211.901 51.3478C211.901 51.3478 213.931 58.7167 204.918 64.9183H197.499Z" fill="#54CE5C"/>
<path d="M304.205 206.115L296.613 221.512" stroke="#A5A5A5" stroke-width="2.03" stroke-linecap="round" stroke-linejoin="round"/>
<path opacity="0.63" d="M136.01 102.676H106.26V108.259H136.01V102.676Z" fill="#CECECE"/>
<path d="M78.2262 170.509C78.2262 170.509 60.7987 181.065 58.5149 205.831C58.3244 207.88 58.8765 209.93 60.0707 211.607C61.2649 213.284 63.0217 214.476 65.0211 214.966L85.4429 219.99L78.2262 170.509Z" fill="#54CE5C"/>
<path opacity="0.2" d="M78.2262 170.509C78.2262 170.509 60.7987 181.065 58.5149 205.831C58.3244 207.88 58.8765 209.93 60.0707 211.607C61.2649 213.284 63.0217 214.476 65.0211 214.966L85.4429 219.99L78.2262 170.509Z" fill="white"/>
<path d="M190.434 64.695L192.464 78.1945H204.898L206.674 64.695H190.434Z" fill="#24285B"/>
<path d="M79.9716 154.482C79.9716 154.482 82.7527 162.46 77.8909 161.962C73.029 161.465 75.6985 158.034 73.2828 154.482C70.8671 150.929 72.146 148.534 75.8203 145.418C77.5153 143.987 78.6521 143.327 79.322 142.566C79.6069 142.228 79.9727 141.969 80.3852 141.812C80.7977 141.654 81.2434 141.604 81.6805 141.666C82.1177 141.728 82.5319 141.9 82.8846 142.165C83.2372 142.431 83.5166 142.782 83.6967 143.185C84.9553 146.25 84.9654 150.351 79.9716 154.482Z" fill="#24285B"/>
<path opacity="0.08" d="M304.774 115.059H260.175V185.186H304.774V115.059Z" fill="black"/>
<path d="M81.877 198.419L48.2251 207.092L54.442 231.213L88.0939 222.54L81.877 198.419Z" fill="#FFD200"/>
<path opacity="0.08" d="M68.0962 201.568L71.9532 217.655L70.9483 226.516L79.9717 224.182L82.6614 216.996L73.9933 200.035L68.0962 201.568Z" fill="black"/>
<path d="M74.1964 175.695C75.0244 173.858 76.2393 172.222 77.7581 170.897C79.2769 169.573 81.0637 168.592 82.9964 168.022C90.4465 165.779 104.596 161.09 108.777 168.022C114.502 177.563 105.732 215.027 105.732 215.027L80.6924 216.965C80.6924 216.965 66.8782 192.159 74.1964 175.695Z" fill="#54CE5C"/>
<path d="M105.692 215.057L102.393 258.103H97.1861L92.5374 224.659L81.0273 216.996L105.692 215.057Z" fill="#24285B"/>
<path d="M81.0275 216.996L73.8413 258.103H79.4238L91.482 223.959L81.0275 216.996Z" fill="#24285B"/>
<path d="M93.8264 173.757C93.4888 172.7 93.4032 171.579 93.5765 170.484C93.7498 169.389 94.1771 168.349 94.8242 167.448C95.4714 166.547 96.3204 165.811 97.3034 165.297C98.2863 164.783 99.3759 164.507 100.485 164.49C103.672 164.388 107.336 164.936 110.148 167.21C116.41 172.285 136.944 175.736 155.478 158.775L159.04 164.246C159.04 164.246 137.989 191.651 105.022 183.775C102.516 183.207 100.191 182.022 98.2587 180.327C96.3266 178.633 94.8484 176.482 93.9584 174.071C93.9076 173.97 93.867 173.858 93.8264 173.757Z" fill="#54CE5C"/>
<path opacity="0.2" d="M93.8264 173.757C93.4888 172.7 93.4032 171.579 93.5765 170.484C93.7498 169.389 94.1771 168.349 94.8242 167.448C95.4714 166.547 96.3204 165.811 97.3034 165.297C98.2863 164.783 99.3759 164.507 100.485 164.49C103.672 164.388 107.336 164.936 110.148 167.21C116.41 172.285 136.944 175.736 155.478 158.775L159.04 164.246C159.04 164.246 137.989 191.651 105.022 183.775C102.516 183.207 100.191 182.022 98.2587 180.327C96.3266 178.633 94.8484 176.482 93.9584 174.071C93.9076 173.97 93.867 173.858 93.8264 173.757Z" fill="white"/>
<path opacity="0.08" d="M85.1585 167.362C85.1585 167.362 73.4454 205.09 107.265 207.587L105.692 215.057L80.6519 216.996C74.894 206.852 71.9735 195.345 72.197 183.683C72.197 183.683 72.4101 174.061 79.1903 169.808C80.9836 168.579 83.0181 167.745 85.1585 167.362Z" fill="black"/>
<path d="M74.8562 258.103L71.395 260.651C71.2636 260.745 71.1655 260.878 71.1149 261.032C71.0644 261.185 71.0639 261.351 71.1136 261.504C71.1634 261.658 71.2607 261.792 71.3916 261.887C71.5225 261.981 71.6801 262.032 71.8416 262.031H77.6474C77.8485 262.029 78.0406 261.948 78.1828 261.805C78.325 261.663 78.406 261.471 78.4087 261.27V258.103H74.8562Z" fill="#54CE5C"/>
<path d="M102.251 258.103L105.509 260.651C105.637 260.75 105.73 260.886 105.775 261.04C105.821 261.195 105.818 261.36 105.765 261.512C105.712 261.664 105.613 261.796 105.482 261.889C105.351 261.982 105.193 262.032 105.032 262.031H100.901C100.316 262.029 99.756 261.794 99.3432 261.38C98.9305 260.965 98.6987 260.404 98.6987 259.819V258.103H102.251Z" fill="#54CE5C"/>
<path d="M344.095 101.408H270.375V177.106H344.095V101.408Z" fill="#F2F2F2"/>
<path d="M329.114 120.084H283.692V122.804H329.114V120.084Z" fill="#A5A5A5"/>
<path d="M329.114 137.268H283.692V139.988H329.114V137.268Z" fill="#A5A5A5"/>
<path d="M329.114 154.451H283.692V157.172H329.114V154.451Z" fill="#A5A5A5"/>
<path d="M326.759 115.059H326.749C324.551 115.059 322.77 116.841 322.77 119.038V123.849C322.77 126.047 324.551 127.828 326.749 127.828H326.759C328.956 127.828 330.738 126.047 330.738 123.849V119.038C330.738 116.841 328.956 115.059 326.759 115.059Z" fill="#24285B"/>
<path d="M308.763 132.243H308.753C306.555 132.243 304.774 134.025 304.774 136.222V141.033C304.774 143.231 306.555 145.012 308.753 145.012H308.763C310.96 145.012 312.742 143.231 312.742 141.033V136.222C312.742 134.025 310.96 132.243 308.763 132.243Z" fill="#54CE5C"/>
<path d="M296.583 149.437H296.573C294.376 149.437 292.594 151.219 292.594 153.416V158.227C292.594 160.425 294.376 162.206 296.573 162.206H296.583C298.781 162.206 300.562 160.425 300.562 158.227V153.416C300.562 151.219 298.781 149.437 296.583 149.437Z" fill="#FFD200"/>
<path d="M249.03 181.207H165.831V200.167H249.03V181.207Z" fill="white"/>
<path d="M249.03 181.207H220.661V200.167H249.03V181.207Z" fill="#24285B"/>
<path d="M158.106 162.835C158.106 162.835 162.451 164.256 163.374 157.862L155.995 159.597L158.106 162.835Z" fill="#F4A28C"/>
<path opacity="0.08" d="M244.3 74.1853C244.3 74.1853 253.131 72.5004 256.176 60.3204C259.221 48.1404 252.735 38.4674 258.997 36.9754C265.26 35.4833 267.858 51.3681 267.858 51.3681C267.858 51.3681 268.102 63.7917 256.176 79.1588L244.3 74.1853Z" fill="black"/>
<path d="M263.058 34.0928C268.255 35.9401 276.375 39.6144 281.856 45.8363C283.41 47.6061 284.562 49.693 285.23 51.9522C285.897 54.2114 286.066 56.5889 285.723 58.9197L283.266 75.6266H277.43L277.694 60.4016C277.708 58.7924 277.203 57.2216 276.254 55.9218C275.305 54.6221 273.963 53.6624 272.426 53.1849C266.123 51.2564 256.45 46.9731 256.44 38.8531C256.429 38.0531 256.612 37.2622 256.972 36.5477C257.332 35.8332 257.859 35.2162 258.509 34.749C259.158 34.2817 259.911 33.9781 260.703 33.8639C261.495 33.7496 262.303 33.8282 263.058 34.0928Z" fill="#54CE5C"/>
<path opacity="0.2" d="M263.058 34.0928C268.255 35.9401 276.375 39.6144 281.856 45.8363C283.41 47.6061 284.562 49.693 285.23 51.9522C285.897 54.2114 286.066 56.5889 285.723 58.9197L283.266 75.6266H277.43L277.694 60.4016C277.708 58.7924 277.203 57.2216 276.254 55.9218C275.305 54.6221 273.963 53.6624 272.426 53.1849C266.123 51.2564 256.45 46.9731 256.44 38.8531C256.429 38.0531 256.612 37.2622 256.972 36.5477C257.332 35.8332 257.859 35.2162 258.509 34.749C259.158 34.2817 259.911 33.9781 260.703 33.8639C261.495 33.7496 262.303 33.8282 263.058 34.0928Z" fill="white"/>
<path opacity="0.08" d="M248.675 167.362H210.785V171.97H248.675V167.362Z" fill="black"/>
</svg>
